<svg width="72" height="72" viewBox="0 0 72 72" fill="none" xmlns="http://www.w3.org/2000/svg">
<rect width="72" height="72" rx="4" fill="#241508"/>
<path d="M35.4707 43.2188H27.0156L25.5391 48H18.9473L28.334 22.4062H34.1348L43.5918 48H36.9648L35.4707 43.2188ZM28.4922 38.4551H33.9941L31.2344 29.5781L28.4922 38.4551ZM51.4492 48H45.5078V28.9805H51.4492V48ZM45.1562 24.0762C45.1562 23.2324 45.4609 22.541 46.0703 22.002C46.6797 21.4629 47.4707 21.1934 48.4434 21.1934C49.416 21.1934 50.207 21.4629 50.8164 22.002C51.4258 22.541 51.7305 23.2324 51.7305 24.0762C51.7305 24.9199 51.4258 25.6113 50.8164 26.1504C50.207 26.6895 49.416 26.959 48.4434 26.959C47.4707 26.959 46.6797 26.6895 46.0703 26.1504C45.4609 25.6113 45.1562 24.9199 45.1562 24.0762Z" fill="#FF6B00"/>
</svg>
