<svg width="98" height="119" viewBox="0 0 98 119" fill="none" xmlns="http://www.w3.org/2000/svg">
<path d="M81.9105 0H0V102.388H81.9105V0Z" fill="#DF3B40"/>
<path d="M23.2567 8.62982H5.70447V20.3313H23.2567V8.62982Z" fill="white"/>
<path d="M73.7194 31.4478H5.85071V35.5433H73.7194V31.4478Z" fill="white"/>
<path d="M73.7194 42.2717H5.85071V46.3673H73.7194V42.2717Z" fill="white"/>
<path d="M73.7194 53.0956H5.85071V57.1911H73.7194V53.0956Z" fill="white"/>
<path d="M73.7194 63.9194H5.85071V68.015H73.7194V63.9194Z" fill="white"/>
<path d="M73.7194 74.7433H5.85071V78.8389H73.7194V74.7433Z" fill="white"/>
<path d="M98 102.242C97.9964 106.106 96.5985 109.838 94.0632 112.754C91.528 115.67 88.0257 117.573 84.1999 118.113C80.3741 118.654 76.4817 117.795 73.238 115.696C69.9943 113.597 67.6171 110.397 66.5433 106.686C65.4695 102.974 65.7712 98.9996 67.3929 95.4926C69.0146 91.9856 71.8474 89.1816 75.3708 87.5958C78.8942 86.01 82.8715 85.749 86.5719 86.8607C90.2724 87.9724 93.4473 90.3821 95.5135 93.6471C97.1383 96.2193 98.0005 99.1995 98 102.242Z" fill="#EE4540"/>
<path d="M95.5134 93.6471L79.6754 109.482C78.68 107.941 73.1343 100.779 73.1343 100.779C73.845 100.061 74.6034 99.3914 75.4044 98.7753L80.003 104.907L93.6587 91.2512C94.3512 91.9895 94.9722 92.7917 95.5134 93.6471Z" fill="white"/>
</svg>
