<svg width="99" height="64" viewBox="0 0 99 64" fill="none" xmlns="http://www.w3.org/2000/svg">
<path d="M8.94727 28L11.1445 26.5938V2.54688L9.28125 1.24609H13.4121L12.6914 12.4434L18.0527 2.82812L15.8906 1.24609H21.1465L19.0371 2.82812L14.2031 11.3359L19.2129 26.2773L21.4805 28H16.1895L18.5273 26.1719L12.6211 13.709L11.7246 28H8.94727ZM21.9727 2.47656C21.9727 2.17188 22.207 1.9082 22.6758 1.68555C23.1445 1.46289 23.7246 1.35156 24.416 1.35156C25.1426 1.35156 25.7461 1.46289 26.2266 1.68555C26.707 1.9082 26.9473 2.17188 26.9473 2.47656C26.9473 2.76953 26.707 3.01563 26.2266 3.21484C25.7578 3.41406 25.1543 3.51367 24.416 3.51367C23.6895 3.51367 23.0977 3.41992 22.6406 3.23242C22.1953 3.0332 21.9727 2.78125 21.9727 2.47656ZM20.7773 28L23.8184 26.7344L23.2383 5.78125L20.4258 4.49805H28.5293L25.5762 5.78125L24.5215 26.7344L27.5449 28H20.7773ZM38.6191 11.3008L36.6855 1.9668H33.7324L34.2773 26.5234L36.5801 28H29.8828L32.2207 26.6289L33.082 1.9668H30.0586L28.1777 11.3008V1.24609H38.6191V11.3008ZM48.3926 17.3477H50.3086C50.1914 20.582 49.6465 23.207 48.6738 25.2227C47.7129 27.2383 46.5645 28.2461 45.2285 28.2461C43.8691 28.2461 42.709 26.9863 41.748 24.4668C40.7988 21.9355 40.3242 18.6836 40.3242 14.7109C40.3242 10.7734 40.8457 7.49805 41.8887 4.88477C42.9434 2.27148 44.1855 0.964844 45.6152 0.964844C46.3301 0.964844 46.9512 1.22266 47.4785 1.73828C48.0059 2.25391 48.4336 3.01563 48.7617 4.02344L49.8691 1.47461V10.0352C49.3066 7.1875 48.6738 5.07812 47.9707 3.70703C47.2676 2.33594 46.4707 1.65039 45.5801 1.65039C44.5254 1.65039 43.7578 2.81641 43.2773 5.14844C42.7969 7.46875 42.5566 11.2598 42.5566 16.5215C42.5566 20.4473 42.7676 23.2598 43.1895 24.959C43.623 26.6465 44.3262 27.4902 45.2988 27.4902C46.2012 27.4902 46.9395 26.7578 47.5137 25.293C48.0996 23.8281 48.3926 21.9238 48.3926 19.5801V17.3477ZM51.416 28L53.6133 26.5938V2.54688L51.75 1.24609H55.8809L55.0898 14.2539H60.8555L61.6816 1.24609H64.5996L62.2617 2.58203V26.7695L64.0547 28H59.9941L60.8203 15.0449H55.0547L54.1934 28H51.416ZM64.6348 28L66.832 26.5938V2.54688L64.9688 1.24609H75.6562L73.5996 6.53711V1.93164H69.0996L68.2734 14.2188H71.0508L72.8086 10.6152V18.7539L70.9805 15.0098H68.2383L67.4121 27.3145H73.4941L75.3574 20.7578V28H64.6348ZM76.5879 28L78.7852 26.5938V2.54688L76.9219 1.24609H81.0527L85.7988 25.1875L87.2051 1.24609H89.877L87.8203 2.61719V26.6992L89.7715 28H85.4824L80.7715 4.81445L79.3652 28H76.5879ZM9.79102 35.7891V44.7891C9.04102 41.5664 8.36719 39.4102 7.76953 38.3203C7.18359 37.2305 6.46289 36.6855 5.60742 36.6855C4.93945 36.6855 4.42969 37.0723 4.07812 37.8457C3.72656 38.6191 3.55078 39.7559 3.55078 41.2559C3.55078 42.8379 3.73828 44.1152 4.11328 45.0879C4.5 46.0488 5.26172 47.0859 6.39844 48.1992C8.07422 49.8633 9.1582 51.2461 9.65039 52.3477C10.1426 53.4375 10.3887 54.709 10.3887 56.1621C10.3887 58.2363 9.9082 59.9355 8.94727 61.2598C7.99805 62.584 6.79102 63.2461 5.32617 63.2461C4.5293 63.2461 3.83789 62.9414 3.25195 62.332C2.66602 61.7227 2.14453 60.7559 1.6875 59.4316L0.457031 61.9629V51.7676C1.37109 55.9863 2.16797 58.8223 2.84766 60.2754C3.52734 61.7285 4.3418 62.4551 5.29102 62.4551C6.24023 62.4551 6.9375 61.957 7.38281 60.9609C7.82812 59.9648 8.05078 58.4004 8.05078 56.2676C8.05078 54.1934 7.86328 52.6406 7.48828 51.6094C7.11328 50.5781 6.45117 49.5996 5.50195 48.6738C5.34961 48.5332 5.11523 48.3223 4.79883 48.041C3.38086 46.7871 2.40234 45.627 1.86328 44.5605C1.6875 44.2207 1.54688 43.752 1.44141 43.1543C1.33594 42.5566 1.2832 41.9238 1.2832 41.2559C1.2832 39.7207 1.69336 38.4551 2.51367 37.459C3.3457 36.4629 4.38867 35.9648 5.64258 35.9648C6.29883 35.9648 6.87305 36.1934 7.36523 36.6504C7.85742 37.0957 8.29102 37.793 8.66602 38.7422L9.79102 35.7891ZM11.3379 63L13.5352 61.5938V37.5469L11.6719 36.2461H22.3594L20.3027 41.5371V36.9316H15.8027L14.9766 49.2188H17.7539L19.5117 45.6152V53.7539L17.6836 50.0098H14.9414L14.1152 62.3145H20.1973L22.0605 55.7578V63H11.3379ZM34.0137 46.3008L32.0801 36.9668H29.127L29.6719 61.5234L31.9746 63H25.2773L27.6152 61.6289L28.4766 36.9668H25.4531L23.5723 46.3008V36.2461H34.0137V46.3008ZM43.998 62.3145L44.9473 62.2793C46.5176 62.2441 47.7715 61.5703 48.709 60.2578C49.6465 58.9336 50.1152 57.1699 50.1152 54.9668C50.1152 52.9277 49.8281 51.416 49.2539 50.4316C48.6914 49.4473 47.8242 48.9551 46.6523 48.9551C46.3477 48.9551 45.9258 48.9785 45.3867 49.0254C45.1641 49.0488 45 49.0605 44.8945 49.0605L43.998 62.3145ZM44.9297 48.3047C45.0117 48.3164 45.1289 48.3281 45.2812 48.3398C45.75 48.375 46.0547 48.3926 46.1953 48.3926C47.3672 48.3926 48.2578 47.8535 48.8672 46.7754C49.4883 45.6973 49.7988 44.1211 49.7988 42.0469C49.7988 40.3008 49.4648 39.0117 48.7969 38.1797C48.1406 37.3477 47.127 36.9316 45.7559 36.9316H45.6855L44.9297 48.3047ZM41.2207 63L43.418 61.5938V37.5469L41.5547 36.2461H45.6855C47.5137 36.2461 48.9375 36.75 49.957 37.7578C50.9766 38.7539 51.4863 40.1484 51.4863 41.9414C51.4863 43.4766 51.1816 44.8301 50.5723 46.002C49.9629 47.1621 49.1133 48.0176 48.0234 48.5684C49.2422 48.9316 50.2031 49.6582 50.9062 50.748C51.6211 51.8379 51.9785 53.1387 51.9785 54.6504C51.9785 57.0762 51.2988 59.0742 49.9395 60.6445C48.5918 62.2148 46.8867 63 44.8242 63H41.2207ZM65.1445 36.9316L63.2109 38.4434L58.4121 51.6621L59.5723 61.6992L61.6289 63H55.0371L57.1992 61.6992L57.7441 51.6621L54.0703 37.9512L51.8379 36.2461H57.1992L54.8262 38.0918L58.957 48.4629L62.2793 38.7422L59.9414 36.9316H65.1445ZM67.1309 62.3145L68.0801 62.2793C69.6504 62.2441 70.9043 61.5703 71.8418 60.2578C72.7793 58.9336 73.248 57.1699 73.248 54.9668C73.248 52.9277 72.9609 51.416 72.3867 50.4316C71.8242 49.4473 70.957 48.9551 69.7852 48.9551C69.4805 48.9551 69.0586 48.9785 68.5195 49.0254C68.2969 49.0488 68.1328 49.0605 68.0273 49.0605L67.1309 62.3145ZM68.0625 48.3047C68.1445 48.3164 68.2617 48.3281 68.4141 48.3398C68.8828 48.375 69.1875 48.3926 69.3281 48.3926C70.5 48.3926 71.3906 47.8535 72 46.7754C72.6211 45.6973 72.9316 44.1211 72.9316 42.0469C72.9316 40.3008 72.5977 39.0117 71.9297 38.1797C71.2734 37.3477 70.2598 36.9316 68.8887 36.9316H68.8184L68.0625 48.3047ZM64.3535 63L66.5508 61.5938V37.5469L64.6875 36.2461H68.8184C70.6465 36.2461 72.0703 36.75 73.0898 37.7578C74.1094 38.7539 74.6191 40.1484 74.6191 41.9414C74.6191 43.4766 74.3145 44.8301 73.7051 46.002C73.0957 47.1621 72.2461 48.0176 71.1562 48.5684C72.375 48.9316 73.3359 49.6582 74.0391 50.748C74.7539 51.8379 75.1113 53.1387 75.1113 54.6504C75.1113 57.0762 74.4316 59.0742 73.0723 60.6445C71.7246 62.2148 70.0195 63 67.957 63H64.3535ZM88.2773 36.9316L86.3438 38.4434L81.5449 51.6621L82.7051 61.6992L84.7617 63H78.1699L80.332 61.6992L80.877 51.6621L77.2031 37.9512L74.9707 36.2461H80.332L77.959 38.0918L82.0898 48.4629L85.4121 38.7422L83.0742 36.9316H88.2773ZM87.4863 63L89.6836 61.5938V37.5469L87.8203 36.2461H98.5078L96.4512 41.5371V36.9316H91.9512L91.125 49.2188H93.9023L95.6602 45.6152V53.7539L93.832 50.0098H91.0898L90.2637 62.3145H96.3457L98.209 55.7578V63H87.4863Z" fill="#C4C4C4"/>
</svg>
