<svg width="131" height="63" viewBox="0 0 131 63" fill="none" xmlns="http://www.w3.org/2000/svg">
<path d="M34.3122 2.52C32.7042 3.192 31.4562 4.2 30.5682 5.544C29.7042 6.888 29.2722 8.508 29.2722 10.404C29.2722 11.292 29.3562 11.916 29.5242 12.276C29.6922 12.612 29.7762 12.804 29.7762 12.852C28.4802 12.852 27.5082 12.588 26.8602 12.06C26.2362 11.508 25.9242 10.608 25.9242 9.36C25.9242 7.824 26.5482 6.336 27.7962 4.896C29.0682 3.432 30.6882 2.256 32.6562 1.368C34.6242 0.455998 36.5922 -2.14577e-06 38.5602 -2.14577e-06C38.8962 -2.14577e-06 39.3762 0.0239983 40.0002 0.0719991L37.6962 10.8H42.9882L45.2922 0.0719991H50.4762L44.7522 27H39.5682L42.4482 13.464H37.1562L34.2762 27H29.0922L34.3122 2.52ZM54.6896 27.144C52.9136 27.144 51.5096 26.688 50.4776 25.776C49.4456 24.864 48.9296 23.424 48.9296 21.456C48.9296 19.824 49.2656 18.012 49.9376 16.02C50.6096 14.028 51.6896 12.312 53.1776 10.872C54.6656 9.408 56.5376 8.676 58.7936 8.676C61.8656 8.676 63.4016 10.596 63.4016 14.436V14.472C63.4736 14.496 63.6056 14.508 63.7976 14.508C64.5896 14.508 65.5016 14.304 66.5336 13.896C67.5656 13.464 68.5016 12.948 69.3416 12.348L69.6656 13.32C68.9696 14.064 68.0576 14.7 66.9296 15.228C65.8256 15.732 64.6136 16.092 63.2936 16.308C63.1016 18.492 62.6096 20.4 61.8176 22.032C61.0256 23.664 60.0056 24.924 58.7576 25.812C57.5096 26.7 56.1536 27.144 54.6896 27.144ZM56.1296 23.904C56.7056 23.904 57.2816 23.58 57.8576 22.932C58.4336 22.26 58.9376 21.36 59.3696 20.232C59.8016 19.08 60.1136 17.808 60.3056 16.416C59.6576 16.272 59.3336 15.768 59.3336 14.904C59.3336 13.92 59.7056 13.272 60.4496 12.96C60.4016 12.168 60.2816 11.628 60.0896 11.34C59.8976 11.028 59.5616 10.872 59.0816 10.872C58.2896 10.872 57.5216 11.448 56.7776 12.6C56.0336 13.752 55.4336 15.132 54.9776 16.74C54.5216 18.348 54.2936 19.764 54.2936 20.988C54.2936 22.14 54.4256 22.92 54.6896 23.328C54.9536 23.712 55.4336 23.904 56.1296 23.904ZM87.1419 27.216C85.6779 27.216 84.5979 26.832 83.9019 26.064C83.2299 25.272 82.8939 24.3 82.8939 23.148C82.8939 22.644 82.9539 22.08 83.0739 21.456C83.1939 20.808 83.3139 20.184 83.4339 19.584C83.5779 18.984 83.6739 18.6 83.7219 18.432C83.9139 17.592 84.0939 16.764 84.2619 15.948C84.4299 15.132 84.5139 14.472 84.5139 13.968C84.5139 12.744 84.0819 12.132 83.2179 12.132C82.5939 12.132 82.0419 12.444 81.5619 13.068C81.0819 13.668 80.6979 14.46 80.4099 15.444L77.9619 27H72.7779L75.4059 14.58C75.4779 14.292 75.5139 13.992 75.5139 13.68C75.5139 12.624 75.1539 12.096 74.4339 12.096C73.7619 12.096 73.1739 12.408 72.6699 13.032C72.1899 13.632 71.8059 14.436 71.5179 15.444L69.0699 27H63.8859L67.7019 9H72.8859L72.4899 10.872C73.7139 9.504 75.1779 8.82 76.8819 8.82C78.9939 8.82 80.2299 9.852 80.5899 11.916C81.9099 9.876 83.5779 8.856 85.5939 8.856C86.8179 8.856 87.7899 9.192 88.5099 9.864C89.2299 10.536 89.5899 11.556 89.5899 12.924C89.5899 13.62 89.5059 14.4 89.3379 15.264C89.1699 16.104 88.9299 17.136 88.6179 18.36C88.4259 19.104 88.2459 19.836 88.0779 20.556C87.9339 21.252 87.8619 21.804 87.8619 22.212C87.8619 22.692 87.9699 23.064 88.1859 23.328C88.4019 23.592 88.7739 23.724 89.3019 23.724C90.0219 23.724 90.5979 23.472 91.0299 22.968C91.4619 22.44 91.8939 21.636 92.3259 20.556H93.8379C92.9499 23.196 91.9179 24.972 90.7419 25.884C89.5899 26.772 88.3899 27.216 87.1419 27.216ZM97.4002 27.216C95.6482 27.216 94.2802 26.76 93.2962 25.848C92.3122 24.912 91.8202 23.46 91.8202 21.492C91.8202 19.836 92.1442 18.012 92.7922 16.02C93.4402 14.028 94.4962 12.312 95.9602 10.872C97.4242 9.408 99.2842 8.676 101.54 8.676C104.18 8.676 105.5 9.828 105.5 12.132C105.5 13.476 105.116 14.712 104.348 15.84C103.58 16.968 102.56 17.88 101.288 18.576C100.016 19.248 98.6602 19.632 97.2202 19.728C97.1722 20.256 97.1482 20.616 97.1482 20.808C97.1482 22.8 97.8922 23.796 99.3802 23.796C100.052 23.796 100.772 23.616 101.54 23.256C102.308 22.896 103.004 22.44 103.628 21.888C102.98 25.44 100.904 27.216 97.4002 27.216ZM97.4722 18C98.3842 17.976 99.2362 17.676 100.028 17.1C100.844 16.524 101.492 15.792 101.972 14.904C102.476 13.992 102.728 13.044 102.728 12.06C102.728 11.076 102.428 10.584 101.828 10.584C100.988 10.584 100.148 11.352 99.3082 12.888C98.4922 14.4 97.8802 16.104 97.4722 18ZM8.602 37.952C7.09 38 5.926 38.576 5.11 39.68C4.318 40.784 3.922 42.692 3.922 45.404C3.922 46.292 4.006 46.916 4.174 47.276C4.342 47.612 4.426 47.804 4.426 47.852C3.13 47.852 2.158 47.588 1.51 47.06C0.886 46.508 0.574 45.608 0.574 44.36C0.574 42.656 0.994 41.108 1.834 39.716C2.674 38.3 4.006 37.16 5.83 36.296C7.678 35.432 10.018 35 12.85 35C13.426 35 14.194 35.06 15.154 35.18C16.882 35.348 18.106 35.432 18.826 35.432C20.098 35.432 21.178 35.288 22.066 35C21.994 35.216 21.862 35.696 21.67 36.44C21.478 37.16 21.13 37.784 20.626 38.312C20.146 38.816 19.486 39.152 18.646 39.32C17.23 39.32 15.55 39.092 13.606 38.636L12.094 45.8H17.35L16.774 48.464H11.518L8.602 62H3.418L8.602 37.952ZM20.3374 62.216C19.1854 62.216 18.2494 61.856 17.5294 61.136C16.8334 60.416 16.4854 59.336 16.4854 57.896C16.4854 57.296 16.5814 56.516 16.7734 55.556L19.2214 44H24.4054L21.8134 56.24C21.7414 56.6 21.7054 56.936 21.7054 57.248C21.7054 58.232 22.0654 58.724 22.7854 58.724C23.4574 58.724 24.0334 58.448 24.5134 57.896C24.9934 57.32 25.3774 56.54 25.6654 55.556L28.1134 44H33.2974L30.7054 56.24C30.6094 56.6 30.5614 56.984 30.5614 57.392C30.5614 57.872 30.6694 58.22 30.8854 58.436C31.1254 58.628 31.5094 58.724 32.0374 58.724C32.7094 58.724 33.2854 58.436 33.7654 57.86C34.2694 57.284 34.6654 56.516 34.9534 55.556H36.4654C35.5774 58.148 34.4734 59.912 33.1534 60.848C31.8574 61.76 30.5494 62.216 29.2294 62.216C28.1974 62.216 27.3694 61.928 26.7454 61.352C26.1454 60.776 25.7854 59.924 25.6654 58.796C24.8494 60.116 23.9854 61.016 23.0734 61.496C22.1854 61.976 21.2734 62.216 20.3374 62.216ZM37.3972 44H42.5812L42.1132 46.232C42.9292 45.512 43.6612 44.96 44.3092 44.576C44.9812 44.192 45.7012 44 46.4692 44C47.2372 44 47.8372 44.264 48.2692 44.792C48.7252 45.32 48.9532 45.956 48.9532 46.7C48.9532 47.396 48.7252 48.008 48.2692 48.536C47.8132 49.064 47.1772 49.328 46.3612 49.328C45.8332 49.328 45.4732 49.208 45.2812 48.968C45.1132 48.704 44.9812 48.332 44.8852 47.852C44.8132 47.54 44.7412 47.312 44.6692 47.168C44.5972 47.024 44.4652 46.952 44.2732 46.952C43.7692 46.952 43.3372 47.06 42.9772 47.276C42.6412 47.468 42.1972 47.816 41.6452 48.32L38.7652 62H33.5812L37.3972 44ZM61.4804 62.216C60.0164 62.216 58.9364 61.832 58.2404 61.064C57.5684 60.272 57.2324 59.3 57.2324 58.148C57.2324 57.644 57.2924 57.08 57.4124 56.456C57.5324 55.808 57.6524 55.184 57.7724 54.584C57.9164 53.984 58.0124 53.6 58.0604 53.432C58.2524 52.592 58.4324 51.764 58.6004 50.948C58.7684 50.132 58.8524 49.472 58.8524 48.968C58.8524 47.744 58.4204 47.132 57.5564 47.132C56.9324 47.132 56.3804 47.444 55.9004 48.068C55.4204 48.668 55.0364 49.46 54.7484 50.444L52.3004 62H47.1164L50.9324 44H56.1164L55.7204 45.872C56.9204 44.528 58.3244 43.856 59.9324 43.856C61.1564 43.856 62.1284 44.192 62.8484 44.864C63.5684 45.536 63.9284 46.556 63.9284 47.924C63.9284 48.62 63.8444 49.4 63.6764 50.264C63.5084 51.104 63.2684 52.136 62.9564 53.36C62.7644 54.104 62.5844 54.836 62.4164 55.556C62.2724 56.252 62.2004 56.804 62.2004 57.212C62.2004 57.692 62.3084 58.064 62.5244 58.328C62.7404 58.592 63.1124 58.724 63.6404 58.724C64.3604 58.724 64.9364 58.472 65.3684 57.968C65.8004 57.44 66.2324 56.636 66.6644 55.556H68.1764C67.2884 58.196 66.2564 59.972 65.0804 60.884C63.9284 61.772 62.7284 62.216 61.4804 62.216ZM72.6722 42.056C71.8802 42.056 71.2082 41.78 70.6562 41.228C70.1042 40.676 69.8282 40.004 69.8282 39.212C69.8282 38.42 70.1042 37.748 70.6562 37.196C71.2082 36.62 71.8802 36.332 72.6722 36.332C73.4642 36.332 74.1362 36.62 74.6882 37.196C75.2642 37.748 75.5522 38.42 75.5522 39.212C75.5522 40.004 75.2642 40.676 74.6882 41.228C74.1362 41.78 73.4642 42.056 72.6722 42.056ZM70.2242 62.216C69.0722 62.216 68.1362 61.856 67.4162 61.136C66.7202 60.416 66.3722 59.336 66.3722 57.896C66.3722 57.296 66.4682 56.516 66.6602 55.556L69.1082 44H74.2922L71.7002 56.24C71.6042 56.6 71.5562 56.984 71.5562 57.392C71.5562 57.872 71.6642 58.22 71.8802 58.436C72.1202 58.628 72.5042 58.724 73.0322 58.724C73.7282 58.724 74.3762 58.436 74.9762 57.86C75.5762 57.26 76.0082 56.492 76.2722 55.556H77.7842C76.8962 58.148 75.7562 59.912 74.3642 60.848C72.9722 61.76 71.5922 62.216 70.2242 62.216ZM79.8218 62.216C78.6698 62.216 77.7338 61.856 77.0138 61.136C76.3178 60.416 75.9698 59.336 75.9698 57.896C75.9698 57.296 76.0658 56.516 76.2578 55.556L78.4178 45.44H77.2298L77.5178 44H78.7058L79.7858 39.032L85.1138 38.312L83.8898 44H86.0498L85.7618 45.44H83.6018L81.2978 56.24C81.2018 56.6 81.1538 56.984 81.1538 57.392C81.1538 57.872 81.2618 58.22 81.4778 58.436C81.7178 58.628 82.1018 58.724 82.6298 58.724C83.3258 58.724 83.9738 58.436 84.5738 57.86C85.1738 57.26 85.6058 56.492 85.8698 55.556H87.3818C86.4938 58.148 85.3538 59.912 83.9618 60.848C82.5698 61.76 81.1898 62.216 79.8218 62.216ZM89.4195 62.216C88.2675 62.216 87.3315 61.856 86.6115 61.136C85.9155 60.416 85.5675 59.336 85.5675 57.896C85.5675 57.296 85.6635 56.516 85.8555 55.556L88.3035 44H93.4875L90.8955 56.24C90.8235 56.6 90.7875 56.936 90.7875 57.248C90.7875 58.232 91.1475 58.724 91.8675 58.724C92.5395 58.724 93.1155 58.448 93.5955 57.896C94.0755 57.32 94.4595 56.54 94.7475 55.556L97.1955 44H102.379L99.7875 56.24C99.6915 56.6 99.6435 56.984 99.6435 57.392C99.6435 57.872 99.7515 58.22 99.9675 58.436C100.207 58.628 100.591 58.724 101.119 58.724C101.791 58.724 102.367 58.436 102.847 57.86C103.351 57.284 103.747 56.516 104.035 55.556H105.547C104.659 58.148 103.555 59.912 102.235 60.848C100.939 61.76 99.6315 62.216 98.3115 62.216C97.2795 62.216 96.4515 61.928 95.8275 61.352C95.2275 60.776 94.8675 59.924 94.7475 58.796C93.9315 60.116 93.0675 61.016 92.1555 61.496C91.2675 61.976 90.3555 62.216 89.4195 62.216ZM106.479 44H111.663L111.195 46.232C112.011 45.512 112.743 44.96 113.391 44.576C114.063 44.192 114.783 44 115.551 44C116.319 44 116.919 44.264 117.351 44.792C117.807 45.32 118.035 45.956 118.035 46.7C118.035 47.396 117.807 48.008 117.351 48.536C116.895 49.064 116.259 49.328 115.443 49.328C114.915 49.328 114.555 49.208 114.363 48.968C114.195 48.704 114.063 48.332 113.967 47.852C113.895 47.54 113.823 47.312 113.751 47.168C113.679 47.024 113.547 46.952 113.355 46.952C112.851 46.952 112.419 47.06 112.059 47.276C111.723 47.468 111.279 47.816 110.727 48.32L107.847 62H102.663L106.479 44ZM122.642 62.216C120.89 62.216 119.522 61.76 118.538 60.848C117.554 59.912 117.062 58.46 117.062 56.492C117.062 54.836 117.386 53.012 118.034 51.02C118.682 49.028 119.738 47.312 121.202 45.872C122.666 44.408 124.526 43.676 126.782 43.676C129.422 43.676 130.742 44.828 130.742 47.132C130.742 48.476 130.358 49.712 129.59 50.84C128.822 51.968 127.802 52.88 126.53 53.576C125.258 54.248 123.902 54.632 122.462 54.728C122.414 55.256 122.39 55.616 122.39 55.808C122.39 57.8 123.134 58.796 124.622 58.796C125.294 58.796 126.014 58.616 126.782 58.256C127.55 57.896 128.246 57.44 128.87 56.888C128.222 60.44 126.146 62.216 122.642 62.216ZM122.714 53C123.626 52.976 124.478 52.676 125.27 52.1C126.086 51.524 126.734 50.792 127.214 49.904C127.718 48.992 127.97 48.044 127.97 47.06C127.97 46.076 127.67 45.584 127.07 45.584C126.23 45.584 125.39 46.352 124.55 47.888C123.734 49.4 123.122 51.104 122.714 53Z" fill="#C4C4C4"/>
</svg>
