<svg width="147" height="34" viewBox="0 0 147 34" fill="none" xmlns="http://www.w3.org/2000/svg">
<path d="M0.59375 22V0.759999H1.67375V22H0.59375ZM2.75375 22V0.759999H5.99375V22H2.75375ZM7.07375 22V0.759999H8.15375V22H7.07375ZM12.4738 22V0.759999H13.5538V22H12.4738ZM14.6338 22V0.759999H17.8738V22H14.6338ZM7.07375 25.132H9.44975C10.3618 25.132 11.0458 25.312 11.5018 25.672C11.9818 26.032 12.2218 26.536 12.2218 27.184C12.2218 27.592 12.1138 27.964 11.8978 28.3C11.6578 28.636 11.3458 28.876 10.9618 29.02C11.4418 29.188 11.8258 29.464 12.1138 29.848C12.4018 30.256 12.5458 30.688 12.5458 31.144C12.5458 31.864 12.2818 32.44 11.7538 32.872C11.2498 33.28 10.4698 33.484 9.41375 33.484H7.07375V25.132ZM9.30575 28.588C10.6258 28.588 11.2858 28.144 11.2858 27.256C11.2858 26.872 11.1298 26.56 10.8178 26.32C10.5298 26.056 10.0738 25.924 9.44975 25.924H7.97375V28.588H9.30575ZM9.59375 32.656C10.8898 32.656 11.5378 32.128 11.5378 31.072C11.5378 29.944 10.8058 29.38 9.34175 29.38H7.97375V32.656H9.59375ZM18.9453 22V0.759999H22.1853V22H18.9453ZM23.2653 22V0.759999H24.3453V22H23.2653ZM25.4253 22V0.759999H28.6653V22H25.4253ZM32.9853 22V0.759999H34.0653V22H32.9853ZM35.1453 22V0.759999H36.2253V22H35.1453ZM25.5693 25.132H30.6813V25.96H26.4333V28.696H29.9613V29.56H26.4333V32.656H30.6453V33.484H25.5693V25.132ZM37.2969 22V0.759999H40.5369V22H37.2969ZM41.6169 22V0.759999H42.6969V22H41.6169ZM43.7769 22V0.759999H44.8569V22H43.7769ZM45.9369 22V0.759999H49.1769V22H45.9369ZM53.4969 22V0.759999H54.5769V22H53.4969ZM43.8849 25.132H46.3329C47.2929 25.132 47.9889 25.348 48.4209 25.78C48.8769 26.188 49.1049 26.776 49.1049 27.544C49.1049 28.024 48.9489 28.48 48.6369 28.912C48.3249 29.344 47.9169 29.632 47.4129 29.776L49.3569 33.484H48.3129L46.4409 29.812H44.8209V33.484H43.8849V25.132ZM46.4409 28.984C47.0169 28.984 47.4489 28.852 47.7369 28.588C48.0009 28.348 48.1329 28 48.1329 27.544C48.1329 27.088 48.0009 26.716 47.7369 26.428C47.4489 26.164 47.0169 26.032 46.4409 26.032H44.8209V28.984H46.4409ZM55.6484 22V0.759999H56.7284V22H55.6484ZM57.8084 22V0.759999H58.8884V22H57.8084ZM59.9684 22V0.759999H61.0484V22H59.9684ZM65.3684 22V0.759999H68.6084V22H65.3684ZM69.6884 22V0.759999H72.9284V22H69.6884ZM65.1884 33.628C64.5164 33.628 63.9404 33.448 63.4604 33.088C62.9804 32.752 62.6084 32.26 62.3444 31.612C62.0804 30.988 61.9484 30.256 61.9484 29.416C61.9484 28.312 62.1164 27.436 62.4524 26.788C62.7884 26.14 63.1964 25.684 63.6764 25.42C64.1564 25.18 64.6364 25.06 65.1164 25.06C65.6204 25.06 66.1004 25.192 66.5564 25.456C67.0364 25.696 67.3844 26.032 67.6004 26.464L66.9524 26.968L66.8444 27.076L66.8084 27.004C66.8084 26.932 66.7964 26.86 66.7724 26.788C66.7244 26.74 66.6524 26.656 66.5564 26.536C66.3404 26.296 66.1244 26.128 65.9084 26.032C65.6924 25.936 65.4284 25.888 65.1164 25.888C64.4684 25.888 63.9284 26.14 63.4964 26.644C63.0884 27.172 62.8844 28.024 62.8844 29.2C62.8844 30.352 63.0884 31.24 63.4964 31.864C63.9044 32.488 64.4684 32.8 65.1884 32.8C65.4524 32.8 65.7284 32.752 66.0164 32.656C66.3284 32.584 66.5804 32.464 66.7724 32.296V30.316H65.2604V29.488H67.6364V32.764C66.8444 33.34 66.0284 33.628 65.1884 33.628ZM74 22V0.759999H77.24V22H74ZM81.56 22V0.759999H84.8V22H81.56ZM85.88 22V0.759999H86.96V22H85.88ZM88.04 22V0.759999H89.12V22H88.04ZM90.2 22V0.759999H91.28V22H90.2ZM80.048 25.132H80.912L81.812 30.784L83.18 25.744H83.468L84.8 30.82L85.556 25.132H86.348L85.052 33.484H84.692L83.252 28.048L81.776 33.484H81.38L80.048 25.132ZM92.3516 22V0.759999H93.4316V22H92.3516ZM94.5116 22V0.759999H97.7516V22H94.5116ZM98.8316 22V0.759999H99.9116V22H98.8316ZM104.232 22V0.759999H107.472V22H104.232ZM108.552 22V0.759999H109.632V22H108.552ZM99.2636 32.692H100.92V25.924H99.3716V25.132H103.512V25.924H101.856V32.692H103.584V33.484H99.2636V32.692ZM110.703 22V0.759999H111.783V22H110.703ZM112.863 22V0.759999H113.943V22H112.863ZM115.023 22V0.759999H118.263V22H115.023ZM122.583 22V0.759999H125.823V22H122.583ZM126.903 22V0.759999H127.983V22H126.903ZM119.199 33.628C118.359 33.628 117.687 33.316 117.183 32.692L117.723 32.044L117.831 31.936L117.903 31.972C117.903 32.068 117.915 32.152 117.939 32.224C117.987 32.272 118.059 32.344 118.155 32.44C118.467 32.68 118.803 32.8 119.163 32.8C119.619 32.8 119.943 32.644 120.135 32.332C120.351 32.02 120.459 31.48 120.459 30.712V25.924H118.839V25.132H122.655V25.924H121.359V30.676C121.383 31.372 121.299 31.936 121.107 32.368C120.915 32.8 120.651 33.124 120.315 33.34C119.979 33.532 119.607 33.628 119.199 33.628ZM129.055 22V0.759999H130.135V22H129.055ZM131.215 22V0.759999H132.295V22H131.215ZM133.375 22V0.759999H136.615V22H133.375ZM137.695 22V0.759999H138.775V22H137.695ZM143.095 22V0.759999H146.335V22H143.095ZM135.571 25.132H136.471L139.963 31.324V25.132H141.007V25.24C140.935 25.288 140.899 25.348 140.899 25.42C140.875 25.468 140.863 25.576 140.863 25.744V33.484H140.143L136.435 26.932V33.484H135.571V25.132Z" fill="#C4C4C4"/>
</svg>
