<svg width="83" height="62" viewBox="0 0 83 62" fill="none" xmlns="http://www.w3.org/2000/svg">
<path d="M7.08234 13.9419L3.95343 17.1938V25.8423H0.578434V0.248535H3.95343V12.9048L15.3265 0.248535H19.4046L9.33234 11.5513L20.1956 25.8423H16.1527L7.08234 13.9419ZM37.2816 19.1626H26.5589L24.1507 25.8423H20.6702L30.4437 0.248535H33.3968L43.1878 25.8423H39.7249L37.2816 19.1626ZM27.5784 16.3853H36.2796L31.9202 4.41455L27.5784 16.3853ZM52.7855 13.0981L59.4652 0.248535H63.2972L54.473 16.2974V25.8423H51.098V16.2974L42.2737 0.248535H46.1409L52.7855 13.0981ZM82.9319 0.248535V17.6509C82.9202 20.0649 82.1585 22.0396 80.6468 23.5747C79.1468 25.1099 77.1077 25.9712 74.5296 26.1587L73.6331 26.1938C70.8323 26.1938 68.5999 25.438 66.9359 23.9263C65.2718 22.4146 64.428 20.3345 64.4046 17.686V0.248535H67.7444V17.5806C67.7444 19.4321 68.2542 20.8735 69.2737 21.9048C70.2933 22.9243 71.7464 23.4341 73.6331 23.4341C75.5433 23.4341 77.0023 22.9243 78.0101 21.9048C79.0296 20.8853 79.5394 19.4497 79.5394 17.5981V0.248535H82.9319ZM19.1585 35.2485H22.5511V53.3716C22.5511 55.8208 21.8128 57.7368 20.3362 59.1196C18.8714 60.5024 16.9144 61.1938 14.4652 61.1938C11.9222 61.1938 9.94172 60.5435 8.52375 59.2427C7.10578 57.9419 6.39679 56.1196 6.39679 53.7759H9.77179C9.77179 55.2407 10.1702 56.3833 10.9671 57.2036C11.7757 58.0239 12.9417 58.4341 14.4652 58.4341C15.8597 58.4341 16.9847 57.9946 17.8402 57.1157C18.7073 56.2368 19.1468 55.0063 19.1585 53.4243V35.2485ZM42.0452 54.1626H31.3226L28.9144 60.8423H25.4339L35.2073 35.2485H38.1605L47.9515 60.8423H44.4886L42.0452 54.1626ZM32.3421 51.3853H41.0433L36.6839 39.4146L32.3421 51.3853ZM66.7952 38.0259H58.5687V60.8423H55.2112V38.0259H47.0023V35.2485H66.7952V38.0259ZM74.2132 60.8423H70.8382V35.2485H74.2132V60.8423Z" fill="white"/>
</svg>
