<svg width="80" height="42" viewBox="0 0 80 42" fill="none" xmlns="http://www.w3.org/2000/svg">
<path d="M15.5355 1.5033L15.1488 4.96033C14.4691 4.57751 13.7581 4.29236 13.0159 4.10486C12.2738 3.90955 11.512 3.81189 10.7308 3.81189C8.91048 3.81189 7.47298 4.3158 6.41829 5.32361C5.37142 6.33142 4.84798 7.70642 4.84798 9.44861C4.84798 11.1283 5.31673 12.4642 6.25423 13.4564C7.19173 14.4486 8.45345 14.9447 10.0394 14.9447C10.3753 14.9447 10.6839 14.9291 10.9652 14.8978C11.2464 14.8666 11.512 14.8197 11.762 14.7572V11.2767H9.19564V8.13611H15.887V17.4174C15.012 17.6674 14.1019 17.8549 13.1566 17.9799C12.2113 18.1049 11.2425 18.1674 10.2503 18.1674C7.00814 18.1674 4.54329 17.4369 2.85579 15.976C1.17611 14.515 0.336262 12.3822 0.336262 9.57751C0.336262 6.77283 1.18782 4.59314 2.89095 3.03845C4.60189 1.47595 7.00032 0.694702 10.0863 0.694702C11.0081 0.694702 11.9222 0.765015 12.8284 0.90564C13.7425 1.03845 14.6449 1.23767 15.5355 1.5033ZM23.3753 4.05798V8.32361H24.9339C25.8949 8.32361 26.6136 8.15173 27.0902 7.80798C27.5745 7.45642 27.8167 6.93298 27.8167 6.23767C27.8167 5.48767 27.5472 4.93689 27.0081 4.58533C26.4769 4.23376 25.6331 4.05798 24.4769 4.05798H23.3753ZM19.0277 1.1283H25.6488C27.8519 1.1283 29.4847 1.48767 30.5472 2.20642C31.6175 2.91736 32.1527 4.0033 32.1527 5.46423C32.1527 6.54236 31.8714 7.42908 31.3089 8.12439C30.7464 8.8197 29.9339 9.28455 28.8714 9.51892C29.7464 9.83923 30.4495 10.7494 30.9808 12.2494V12.2611L32.973 17.7806H28.3441L26.8792 13.222C26.6449 12.4877 26.3245 11.9799 25.9183 11.6986C25.512 11.4174 24.8792 11.2767 24.0199 11.2767H23.3753V17.7806H19.0277V1.1283ZM34.8011 1.1283H46.3675V4.24548H39.2425V7.60876H45.9691V10.7728H39.2425V14.5697H46.637V17.7806H34.8011V1.1283ZM49.473 1.1283H61.0394V4.24548H53.9144V7.60876H60.6409V10.7728H53.9144V14.5697H61.3089V17.7806H49.473V1.1283ZM64.1449 1.1283H69.6878L74.5159 11.1127C74.68 11.4486 74.8714 11.9174 75.0902 12.5189C75.3089 13.1127 75.5511 13.8431 75.8167 14.7103C75.6761 13.89 75.5706 13.1361 75.5003 12.4486C75.4378 11.7611 75.4066 11.1322 75.4066 10.5619V1.1283H79.4144V17.7806H73.8949L68.8792 7.43298C68.6449 6.95642 68.43 6.4408 68.2347 5.88611C68.0394 5.32361 67.8597 4.71423 67.6956 4.05798C67.8519 5.05017 67.9652 5.96423 68.0355 6.80017C68.1136 7.6283 68.1527 8.35876 68.1527 8.99158V17.7806H64.1449V1.1283ZM0.793293 24.1283H5.2347L7.1097 35.5892C7.14876 35.9486 7.19173 36.3549 7.23861 36.808C7.29329 37.2533 7.34798 37.726 7.40267 38.226C7.41829 37.7572 7.44954 37.308 7.49642 36.8783C7.54329 36.4408 7.59798 36.0306 7.66048 35.6478L9.60579 24.1283H15.1956L17.2581 35.601C17.3284 35.9213 17.3909 36.308 17.4456 36.7611C17.5003 37.2064 17.5511 37.6947 17.598 38.226C17.6683 37.3666 17.7191 36.7806 17.7503 36.4681C17.7894 36.1478 17.8284 35.8861 17.8675 35.683L19.8011 24.1283H23.9613L20.3636 40.7806H14.6917L12.5355 28.8978C12.4964 28.7025 12.4534 28.3666 12.4066 27.89C12.3597 27.4056 12.3128 26.8236 12.2659 26.1439C12.2191 26.9174 12.1761 27.5306 12.137 27.9838C12.1058 28.4369 12.0784 28.7338 12.055 28.8744L10.0394 40.7806H4.42611L0.793293 24.1283ZM33.5238 26.9525C32.3753 26.9525 31.4495 27.4486 30.7464 28.4408C30.0511 29.4252 29.7034 30.7455 29.7034 32.4017C29.7034 34.0658 30.0511 35.3939 30.7464 36.3861C31.4417 37.3783 32.3675 37.8744 33.5238 37.8744C34.6722 37.8744 35.5902 37.3822 36.2777 36.3978C36.9652 35.4056 37.3089 34.0736 37.3089 32.4017C37.3089 30.7533 36.9613 29.433 36.2659 28.4408C35.5784 27.4486 34.6644 26.9525 33.5238 26.9525ZM33.5238 23.7181C36.1097 23.7181 38.1292 24.4916 39.5824 26.0385C41.0433 27.5775 41.7738 29.7142 41.7738 32.4486C41.7738 35.1908 41.0433 37.3314 39.5824 38.8705C38.1292 40.4017 36.1097 41.1674 33.5238 41.1674C30.9222 41.1674 28.8909 40.4017 27.43 38.8705C25.9691 37.3314 25.2386 35.1908 25.2386 32.4486C25.2386 29.7142 25.9691 27.5775 27.43 26.0385C28.8988 24.4916 30.93 23.7181 33.5238 23.7181ZM52.0863 26.9525C50.9378 26.9525 50.012 27.4486 49.3089 28.4408C48.6136 29.4252 48.2659 30.7455 48.2659 32.4017C48.2659 34.0658 48.6136 35.3939 49.3089 36.3861C50.0042 37.3783 50.93 37.8744 52.0863 37.8744C53.2347 37.8744 54.1527 37.3822 54.8402 36.3978C55.5277 35.4056 55.8714 34.0736 55.8714 32.4017C55.8714 30.7533 55.5238 29.433 54.8284 28.4408C54.1409 27.4486 53.2269 26.9525 52.0863 26.9525ZM52.0863 23.7181C54.6722 23.7181 56.6917 24.4916 58.1449 26.0385C59.6058 27.5775 60.3363 29.7142 60.3363 32.4486C60.3363 35.1908 59.6058 37.3314 58.1449 38.8705C56.6917 40.4017 54.6722 41.1674 52.0863 41.1674C49.4847 41.1674 47.4534 40.4017 45.9925 38.8705C44.5316 37.3314 43.8011 35.1908 43.8011 32.4486C43.8011 29.7142 44.5316 27.5775 45.9925 26.0385C47.4613 24.4916 49.4925 23.7181 52.0863 23.7181ZM67.4261 27.3392V37.4408H69.348C70.9105 37.4408 72.1175 36.9994 72.9691 36.1166C73.8206 35.2338 74.2464 33.9799 74.2464 32.3549C74.2464 30.7455 73.8011 29.5072 72.9105 28.64C72.0277 27.7728 70.762 27.3392 69.1136 27.3392H67.4261ZM62.9613 24.1283H68.7972C70.3206 24.1283 71.5941 24.226 72.6175 24.4213C73.6488 24.6088 74.4886 24.9017 75.137 25.3002C76.348 26.0736 77.262 27.0541 77.8792 28.2416C78.4964 29.4213 78.805 30.7924 78.805 32.3549C78.805 34.0736 78.4808 35.5345 77.8324 36.7377C77.1917 37.9408 76.2113 38.9291 74.8909 39.7025C74.2347 40.0775 73.3949 40.351 72.3714 40.5228C71.348 40.6947 69.973 40.7806 68.2464 40.7806H62.9613V24.1283Z" fill="white"/>
</svg>
