<svg width="69" height="78" viewBox="0 0 69 78" fill="none" xmlns="http://www.w3.org/2000/svg">
<path d="M6.25671 70.2028L0 0H68.7737L62.5086 70.1916L34.3451 78L6.25671 70.2028Z" fill="#1572B6"/>
<path d="M34.387 72.0331L57.1462 65.7235L62.5004 5.74146H34.387V72.0331Z" fill="#33A9DC"/>
<path d="M34.387 31.175H45.7805L46.5661 22.3582H34.387V13.7476H55.9762L55.7701 16.0569L53.6557 39.7856H34.387V31.175V31.175Z" fill="white"/>
<path d="M34.4398 53.5364L34.4008 53.5476L24.8123 50.9569L24.1995 44.0901H15.5554L16.7616 57.6092L34.398 62.5064L34.4398 62.4953V53.5364V53.5364Z" fill="#EBEBEB"/>
<path d="M45.0481 39.4204L44.0118 50.9505L34.4094 53.5412V62.5001L52.0597 57.6083L52.1906 56.1542L53.6866 39.4204H45.0481V39.4204Z" fill="white"/>
<path d="M34.4177 13.7476V22.3582H13.6195L13.4468 20.4221L13.054 16.0569L12.8479 13.7476H34.4177V13.7476Z" fill="#EBEBEB"/>
<path d="M34.3867 31.1748V39.7854H24.918L24.7453 37.8494L24.3553 33.4842L24.1492 31.1748H34.3867V31.1748Z" fill="#EBEBEB"/>
</svg>
