<svg width="48" height="72" viewBox="0 0 48 72" fill="none" xmlns="http://www.w3.org/2000/svg">
<path d="M36 48C42.6274 48 48 42.6274 48 36C48 29.3726 42.6274 24 36 24C29.3726 24 24 29.3726 24 36C24 42.6274 29.3726 48 36 48Z" fill="#19BCFE"/>
<path fill-rule="evenodd" clip-rule="evenodd" d="M12 72C15.1826 72 18.2348 70.7357 20.4853 68.4853C22.7357 66.2348 24 63.1826 24 60V48H12C8.8174 48 5.76516 49.2643 3.51472 51.5147C1.26428 53.7652 0 56.8174 0 60C0 63.1826 1.26428 66.2348 3.51472 68.4853C5.76516 70.7357 8.8174 72 12 72V72Z" fill="#09CF83"/>
<path fill-rule="evenodd" clip-rule="evenodd" d="M12 48H24V24H12C8.8174 24 5.76516 25.2643 3.51472 27.5147C1.26428 29.7652 0 32.8174 0 36C0 39.1826 1.26428 42.2348 3.51472 44.4853C5.76516 46.7357 8.8174 48 12 48V48Z" fill="#A259FF"/>
<path fill-rule="evenodd" clip-rule="evenodd" d="M12 24H24V0H12C8.8174 0 5.76516 1.26428 3.51472 3.51472C1.26428 5.76516 0 8.8174 0 12C0 15.1826 1.26428 18.2348 3.51472 20.4853C5.76516 22.7357 8.8174 24 12 24V24Z" fill="#F24E1E"/>
<path fill-rule="evenodd" clip-rule="evenodd" d="M36 24H24V0H36C39.1826 0 42.2348 1.26428 44.4853 3.51472C46.7357 5.76516 48 8.8174 48 12C48 15.1826 46.7357 18.2348 44.4853 20.4853C42.2348 22.7357 39.1826 24 36 24Z" fill="#FF7262"/>
</svg>
