<svg width="69" height="78" viewBox="0 0 69 78" fill="none" xmlns="http://www.w3.org/2000/svg">
<path d="M6.2595 70.2028L0 0H68.7793L62.5114 70.1916L34.3479 78L6.2595 70.2028Z" fill="#E44F26"/>
<path d="M34.3896 72.0331L57.1489 65.7235L62.5031 5.74146H34.3896V72.0331Z" fill="#F1662A"/>
<path d="M34.3896 31.7763H22.996L22.2104 22.9595H34.3896V14.3489H12.8003L13.0064 16.661L15.1208 40.3869H34.3896V31.7763V31.7763Z" fill="#EBEBEB"/>
<path d="M34.3895 54.1374L34.3505 54.1486L24.7621 51.5606L24.1492 44.6938H15.5051L16.7113 58.2101L34.3505 63.1074L34.3895 63.0963V54.1374Z" fill="#EBEBEB"/>
<path d="M34.3589 31.7766V40.3873H44.9613L43.964 51.5552L34.3589 54.1459V63.1048L52.012 58.2103L52.1401 56.7561L54.1625 34.0888L54.3742 31.7766H34.3589V31.7766Z" fill="white"/>
<path d="M34.3589 14.3489V22.9595H55.157L55.3297 21.0262L55.7225 16.661L55.9287 14.3489H34.3589V14.3489Z" fill="white"/>
</svg>
