<svg width="447" height="389" viewBox="0 0 447 389" fill="none" xmlns="http://www.w3.org/2000/svg">
<path d="M282.237 92.0194H280.109V33.734C280.109 29.304 279.237 24.9173 277.541 20.8245C275.846 16.7317 273.361 13.0129 270.229 9.88042C267.096 6.74792 263.377 4.2631 259.285 2.56781C255.192 0.872526 250.805 -1.6424e-05 246.375 2.31856e-10H122.89C118.46 -1.57099e-05 114.073 0.872526 109.98 2.56781C105.887 4.2631 102.169 6.74793 99.0361 9.88042C95.9036 13.0129 93.4188 16.7317 91.7235 20.8245C90.0282 24.9173 89.1556 29.304 89.1556 33.734V353.492C89.1556 357.922 90.0282 362.309 91.7235 366.401C93.4188 370.494 95.9036 374.213 99.0361 377.345C102.169 380.478 105.887 382.963 109.98 384.658C114.073 386.353 118.46 387.226 122.89 387.226H246.375C250.805 387.226 255.192 386.353 259.285 384.658C263.377 382.963 267.096 380.478 270.229 377.345C273.361 374.213 275.846 370.494 277.541 366.401C279.237 362.309 280.109 357.922 280.109 353.492V133.508H282.237L282.237 92.0194Z" fill="white"/>
<path d="M390.562 371.327H0.132812V372.415H390.562V371.327Z" fill="#3F3D56"/>
<path opacity="0.2" d="M247.736 8.77643H231.617C232.359 10.5938 232.642 12.5655 232.441 14.518C232.241 16.4705 231.564 18.3437 230.469 19.9727C229.374 21.6018 227.896 22.9365 226.163 23.8595C224.431 24.7825 222.499 25.2653 220.536 25.2654H149.793C147.83 25.2653 145.898 24.7825 144.165 23.8595C142.433 22.9365 140.955 21.6017 139.86 19.9727C138.765 18.3437 138.088 16.4705 137.887 14.518C137.687 12.5655 137.97 10.5938 138.711 8.77643H123.656C120.348 8.77642 117.072 9.42803 114.016 10.6941C110.959 11.9601 108.182 13.8157 105.843 16.155C103.503 18.4943 101.648 21.2715 100.382 24.3279C99.1157 27.3844 98.4641 30.6603 98.4641 33.9686V353.257C98.4641 356.566 99.1157 359.842 100.382 362.898C101.648 365.954 103.503 368.732 105.843 371.071C108.182 373.41 110.959 375.266 114.016 376.532C117.072 377.798 120.348 378.45 123.656 378.45H247.736C251.045 378.45 254.321 377.798 257.377 376.532C260.433 375.266 263.211 373.41 265.55 371.071C267.889 368.732 269.745 365.954 271.011 362.898C272.277 359.842 272.929 356.566 272.929 353.257V33.9686C272.929 30.6603 272.277 27.3844 271.011 24.3279C269.745 21.2715 267.889 18.4943 265.55 16.155C263.211 13.8157 260.433 11.9601 257.377 10.6941C254.321 9.42803 251.045 8.77642 247.736 8.77643Z" fill="#EE4540"/>
<path d="M38.9139 372.357L38.3303 372.139C38.202 372.09 25.4382 367.2 19.4591 356.112C13.4797 345.023 16.4075 331.671 16.4378 331.538L16.5756 330.93L17.159 331.149C17.2872 331.197 30.0507 336.088 36.0301 347.176C42.0095 358.265 39.0817 371.616 39.0514 371.749L38.9139 372.357ZM20.4166 355.595C25.4717 364.971 35.5581 369.777 38.1136 370.874C38.5995 368.135 40.1233 357.058 35.0727 347.692C30.0226 338.327 19.9322 333.514 17.3756 332.414C16.8895 335.155 15.3662 346.23 20.4166 355.595Z" fill="#3F3D56"/>
<path d="M24.0285 352.222C34.7737 358.687 38.9121 371.527 38.9121 371.527C38.9121 371.527 25.6289 373.887 14.8836 367.422C4.13835 360.957 0 348.117 0 348.117C0 348.117 13.2832 345.757 24.0285 352.222Z" fill="#EE4540"/>
<path d="M153.686 125.007H129.781V130.762H153.686V125.007Z" fill="#EE4540"/>
<path d="M236.469 125.007H228.058V130.762H236.469V125.007Z" fill="#EE4540"/>
<path d="M253.291 125.007H244.88V130.762H253.291V125.007Z" fill="#EE4540"/>
<path d="M219.204 125.007H162.097V130.762H219.204V125.007Z" fill="#EE4540"/>
<path d="M206.366 162.192H197.955V167.947H206.366V162.192Z" fill="#EE4540"/>
<path d="M223.188 162.192H214.777V167.947H223.188V162.192Z" fill="#EE4540"/>
<path d="M189.101 162.192H131.995V167.947H189.101V162.192Z" fill="#EE4540"/>
<path d="M222.303 137.845H198.398V143.6H222.303V137.845Z" fill="#EE4540"/>
<path d="M254.619 137.845H230.714V143.6H254.619V137.845Z" fill="#EE4540"/>
<path d="M124.911 137.845H116.5V143.6H124.911V137.845Z" fill="#EE4540"/>
<path d="M190.429 137.845H133.323V143.6H190.429V137.845Z" fill="#EE4540"/>
<path d="M148.817 155.995H172.722V150.24H148.817V155.995Z" fill="#EE4540"/>
<path d="M116.5 155.995H140.406V150.24H116.5V155.995Z" fill="#EE4540"/>
<path d="M246.208 155.995H254.619V150.24H246.208V155.995Z" fill="#EE4540"/>
<path d="M180.69 155.995H237.797V150.24H180.69V155.995Z" fill="#EE4540"/>
<path d="M185.696 268.554C197.709 268.554 207.447 258.816 207.447 246.803C207.447 234.791 197.709 225.052 185.696 225.052C173.684 225.052 163.945 234.791 163.945 246.803C163.945 258.816 173.684 268.554 185.696 268.554Z" fill="#EE4540"/>
<path d="M325.946 118.262C319.634 107.597 307.147 107.1 307.147 107.1C307.147 107.1 294.98 105.544 287.174 121.787C279.899 136.926 269.858 151.543 285.557 155.087L288.393 146.26L290.15 155.744C292.385 155.905 294.627 155.943 296.867 155.859C313.68 155.316 329.692 156.017 329.177 149.984C328.491 141.964 332.019 128.523 325.946 118.262Z" fill="#2F2E41"/>
<path d="M303.216 138.345C303.216 138.345 311.373 149.765 306.479 159.009C301.585 168.253 317.898 178.041 317.898 178.041L329.861 151.94C329.861 151.94 315.723 142.696 319.53 133.995L303.216 138.345Z" fill="#FBBEBE"/>
<path d="M308.654 143.239C316.462 143.239 322.792 136.91 322.792 129.101C322.792 121.293 316.462 114.963 308.654 114.963C300.846 114.963 294.516 121.293 294.516 129.101C294.516 136.91 300.846 143.239 308.654 143.239Z" fill="#FBBEBE"/>
<path d="M259.726 145.445L271.541 130.201C271.541 130.201 275.701 114.222 281.726 115.032C287.752 115.842 279.346 134.195 279.346 134.195L267.607 151.068L259.726 145.445Z" fill="#FBBEBE"/>
<path d="M319.53 348.242L323.336 368.362L331.493 370.537L329.318 346.611L319.53 348.242Z" fill="#FBBEBE"/>
<path d="M401.64 326.491L416.322 346.611L422.303 349.33L427.197 341.173L412.515 322.141L401.64 326.491Z" fill="#FBBEBE"/>
<path d="M316.267 169.341L307.196 157.4C307.196 157.4 289.622 160.64 287.991 162.272C286.359 163.903 292.341 193.81 292.341 193.81C292.341 193.81 293.428 201.967 298.322 206.317L303.216 209.58L343.456 201.423L344.969 183.519C345.52 176.998 344.702 170.433 342.569 164.246C340.436 158.059 337.033 152.385 332.58 147.59L325.579 148.547L316.267 169.341Z" fill="#EE4540"/>
<path d="M290.166 163.359L287.447 162.272L274.94 161.184C274.94 161.184 270.59 160.096 271.677 157.921C272.765 155.746 273.852 155.202 271.677 154.659C269.502 154.115 268.959 153.571 269.502 151.94C270.046 150.308 273.309 147.046 273.309 147.046L264.065 139.433C264.065 139.433 263.564 139.787 262.756 140.442C258.166 144.158 243.643 157.565 254.277 170.972C266.783 186.741 281.465 195.985 293.428 192.723L290.166 163.359Z" fill="#EE4540"/>
<path d="M302.129 206.861V214.474C302.129 214.474 297.235 223.718 298.866 232.418C300.497 241.119 301.041 245.469 301.041 245.469C301.219 252.868 302.502 260.2 304.848 267.22C308.654 278.095 296.147 349.33 311.917 350.417C327.686 351.505 336.387 352.592 341.28 347.155C346.174 341.717 333.124 248.188 333.124 248.188C333.124 248.188 377.713 341.173 386.957 337.367C396.202 333.56 419.584 324.86 416.865 319.966C414.146 315.072 345.631 206.317 345.631 206.317L343.456 201.423L302.129 206.861Z" fill="#2F2E41"/>
<path d="M328.23 364.555C328.23 364.555 319.53 364.012 319.53 366.731C319.53 369.449 315.179 378.694 315.179 378.694C315.179 378.694 311.917 389.569 320.617 388.481C329.317 387.394 334.755 377.606 334.755 377.606L332.58 367.274L328.23 364.555Z" fill="#2F2E41"/>
<path d="M419.04 345.523C419.04 345.523 411.427 340.629 411.971 343.892C412.515 347.155 413.059 355.855 416.865 356.399C420.671 356.943 432.091 360.205 432.634 361.293C433.178 362.38 446.229 366.73 446.229 359.661C446.229 352.592 438.072 347.155 438.072 347.155L428.828 340.086C428.828 340.086 422.847 339.542 421.759 343.348C420.671 347.155 419.04 345.523 419.04 345.523Z" fill="#2F2E41"/>
<path d="M308.676 116.183C313.662 116.183 317.704 112.141 317.704 107.154C317.704 102.168 313.662 98.1256 308.676 98.1256C303.689 98.1256 299.647 102.168 299.647 107.154C299.647 112.141 303.689 116.183 308.676 116.183Z" fill="#2F2E41"/>
<path d="M298.696 104.778C298.697 102.548 299.522 100.397 301.014 98.7399C302.505 97.0822 304.557 96.0352 306.775 95.8004C305.516 95.6663 304.242 95.7986 303.037 96.1887C301.833 96.5787 300.724 97.2179 299.782 98.0646C298.84 98.9112 298.087 99.9465 297.572 101.103C297.056 102.26 296.79 103.512 296.79 104.778C296.79 106.045 297.056 107.297 297.572 108.453C298.087 109.61 298.84 110.645 299.782 111.492C300.724 112.339 301.833 112.978 303.037 113.368C304.242 113.758 305.516 113.89 306.775 113.756C304.557 113.521 302.505 112.474 301.014 110.817C299.522 109.159 298.697 107.008 298.696 104.778Z" fill="#2F2E41"/>
<path d="M323.155 117.234L310.819 110.772L293.783 113.415L290.258 128.983L299.032 128.645L301.483 122.926V128.551L305.532 128.395L307.881 119.29L309.35 128.983L323.743 128.689L323.155 117.234Z" fill="#2F2E41"/>
<path d="M322.417 208.121L303.391 208.635C303.391 208.635 287.158 211.794 288.068 205.242C288.979 198.689 304.816 200.981 304.816 200.981L322.152 198.336L322.417 208.121Z" fill="#FBBEBE"/>
<path d="M337.469 146.668C338.426 146.523 339.402 146.724 340.223 147.236C341.044 147.747 341.656 148.534 341.948 149.456C345.672 161.193 357.147 200.47 345.746 205.858C332.318 212.205 322.519 211.926 322.519 211.926L317.275 199.012L322.049 194.531L327.147 161.755L329.589 147.862L337.469 146.668Z" fill="#EE4540"/>
<path opacity="0.4" d="M333.94 168.525L331.765 190.276L312.733 198.432L333.94 193.538V168.525Z" fill="black"/>
</svg>
