<svg width="422" height="317" viewBox="0 0 422 317" fill="none" xmlns="http://www.w3.org/2000/svg">
<path opacity="0.2" d="M61.6711 0.0285605C58.388 -0.0651266 55.0234 0.0285574 51.9439 0.973576C43.565 3.54794 39.5935 11.9716 40.8848 19.2507C42.176 26.5298 47.4877 32.872 52.9989 38.6684C58.5102 44.4648 64.4817 50.196 67.5041 57.1248C69.0113 60.583 69.716 64.4568 68.1844 67.911C65.8218 73.2349 58.6975 76.2084 51.8584 76.8276C45.0192 77.4467 38.1515 76.241 31.2879 75.8378C28.4081 75.6708 25.4467 75.6504 22.7339 76.4284C19.7563 77.2757 17.2756 79.0068 14.9945 80.8113C6.09424 87.8908 -1.03006 97.5488 0.122701 107.695C1.42617 119.195 13.0515 128.282 25.7848 133.158C30.0008 134.787 34.4611 136.083 38.1719 138.388C47.948 144.47 50.1435 155.875 49.17 165.94C48.1964 176.006 44.8807 186.083 46.726 196.059C48.897 207.664 58.5061 218.149 71.4675 223.045C83.0155 227.407 97.4677 227.118 107.72 220.963C112.718 217.957 116.498 213.782 119.786 209.464C124.667 203.088 128.699 196.105 131.782 188.69C133.211 185.232 134.556 181.513 137.892 179.11C139.928 177.631 142.568 176.804 145.179 176.16C153.049 174.221 161.338 173.692 169.281 171.965C177.224 170.238 185.216 167.008 189.534 161.264C195.644 153.117 192.792 142.682 192.821 133.101C192.87 111.243 208.752 91.679 214.613 70.3713C216.528 63.41 217.241 55.7072 212.964 49.4954C210.059 45.2795 205.159 42.2367 200.01 39.8863C188.682 34.7172 175.806 32.4158 163.142 30.1755C145.541 27.0634 124.169 26.6601 110.527 16.5908C97.4351 6.92475 79.5246 0.0285605 61.6711 0.0285605Z" fill="#EE4540"/>
<path d="M232.589 249.289C337.198 249.289 422 226.581 422 198.568C422 170.555 337.198 147.846 232.589 147.846C127.98 147.846 43.178 170.555 43.178 198.568C43.178 226.581 127.98 249.289 232.589 249.289Z" fill="#F5F5F5"/>
<path d="M389.894 76.1148C389.894 76.1148 375.299 90.7096 383.539 112.368C391.78 134.026 369.413 170.042 369.413 170.042C369.413 170.042 369.653 170.006 370.097 169.928C400.073 164.633 414.969 130.351 398.301 104.881C392.106 95.4143 387.018 84.3185 389.894 76.1148Z" fill="#EE4540"/>
<path d="M389.894 76.1148C389.894 76.1148 381.654 94.0049 389.894 108.6C398.134 123.195 391.307 164.156 369.413 170.042" stroke="#535461" stroke-width="2" stroke-miterlimit="10"/>
<path d="M415.89 135.15C415.89 135.15 399.234 132.498 397.719 147.423C396.203 162.348 365.694 164.417 365.694 164.417L366.264 164.796C391.454 181.329 415.552 175.329 411.886 153.39C410.554 145.211 410.664 137.011 415.89 135.15Z" fill="#EE4540"/>
<path opacity="0.2" d="M415.89 135.15C415.89 135.15 399.234 132.498 397.719 147.423C396.203 162.348 365.694 164.417 365.694 164.417L366.264 164.796C391.454 181.329 415.552 175.329 411.886 153.39C410.554 145.211 410.664 137.011 415.89 135.15Z" fill="#F5F5F5"/>
<path d="M415.89 135.15C415.89 135.15 402.961 138.001 404.024 149.741C405.087 161.48 384.826 175.586 365.694 164.405" stroke="#535461" stroke-width="2" stroke-miterlimit="10"/>
<path d="M356.316 168.872H332.156C332.712 167.68 333 166.367 332.999 165.035V47.729C332.999 45.4416 332.146 43.2479 330.629 41.6304C329.112 40.013 327.054 39.1043 324.909 39.1043H137.868C136.805 39.1038 135.753 39.3264 134.771 39.7596C133.789 40.1928 132.897 40.8281 132.145 41.629C131.394 42.4299 130.797 43.3809 130.391 44.4276C129.984 45.4742 129.774 46.5961 129.774 47.729V165.039C129.772 166.371 130.061 167.684 130.617 168.876H105.604C105.036 168.876 104.492 169.117 104.09 169.545C103.689 169.973 103.464 170.553 103.464 171.158V172.998C103.467 176.38 104.729 179.622 106.973 182.012C109.217 184.402 112.259 185.745 115.431 185.745H346.489C349.662 185.745 352.706 184.401 354.951 182.008C357.195 179.615 358.456 176.37 358.456 172.986V171.146C358.454 170.542 358.227 169.964 357.826 169.538C357.425 169.112 356.882 168.872 356.316 168.872ZM207.428 176.17L205.367 173.664H256.785L254.491 176.174L207.428 176.17Z" fill="url(#paint0_linear)"/>
<path d="M340.113 40.9047H143.941C138.708 40.9047 134.466 45.1466 134.466 50.3793V165.032C134.466 170.265 138.708 174.507 143.941 174.507H340.113C345.346 174.507 349.588 170.265 349.588 165.032V50.3793C349.588 45.1466 345.346 40.9047 340.113 40.9047Z" fill="#535461"/>
<path d="M344.602 60.3794H138.991V169.525H344.602V60.3794Z" fill="white"/>
<path d="M241.799 52.6807C242.8 52.6807 243.612 51.8692 243.612 50.8681C243.612 49.867 242.8 49.0555 241.799 49.0555C240.798 49.0555 239.986 49.867 239.986 50.8681C239.986 51.8692 240.798 52.6807 241.799 52.6807Z" fill="white"/>
<path d="M256.866 169.859L250.51 177.081H205.703L199.962 169.859H108.759C108.219 169.859 107.701 170.097 107.319 170.52C106.937 170.943 106.722 171.517 106.722 172.116V173.935C106.722 177.283 107.923 180.494 110.06 182.862C112.196 185.23 115.094 186.56 118.116 186.56H338.1C341.122 186.56 344.02 185.23 346.157 182.862C348.294 180.494 349.494 177.283 349.494 173.935V172.116C349.494 171.517 349.28 170.943 348.898 170.52C348.516 170.097 347.998 169.859 347.457 169.859H256.866Z" fill="#535461"/>
<path d="M203.021 64.2165H116.287C114.18 64.2143 112.158 65.049 110.666 66.5369C109.174 68.0249 108.335 70.0444 108.331 72.1514V192.315C108.335 194.422 109.174 196.442 110.666 197.93C112.158 199.418 114.18 200.252 116.287 200.25H203.021C205.128 200.252 207.149 199.418 208.641 197.93C210.133 196.442 210.973 194.422 210.976 192.315V72.1514C210.973 70.0444 210.133 68.0249 208.641 66.5369C207.149 65.049 205.128 64.2143 203.021 64.2165Z" fill="url(#paint1_linear)"/>
<path d="M201.607 65.8458H117.696C113.197 65.8458 109.549 69.4932 109.549 73.9925V190.898C109.549 195.397 113.197 199.045 117.696 199.045H201.607C206.107 199.045 209.754 195.397 209.754 190.898V73.9925C209.754 69.4932 206.107 65.8458 201.607 65.8458Z" fill="#535461"/>
<path d="M204.662 78.4447H114.641V186.446H204.662V78.4447Z" fill="white"/>
<path d="M159.244 73.1779C159.919 73.1779 160.466 72.6308 160.466 71.9559C160.466 71.281 159.919 70.7339 159.244 70.7339C158.569 70.7339 158.022 71.281 158.022 71.9559C158.022 72.6308 158.569 73.1779 159.244 73.1779Z" fill="white"/>
<path d="M159.244 196.193C161.269 196.193 162.91 194.552 162.91 192.527C162.91 190.502 161.269 188.861 159.244 188.861C157.22 188.861 155.578 190.502 155.578 192.527C155.578 194.552 157.22 196.193 159.244 196.193Z" fill="white"/>
<path d="M136.91 104.95H92.376C91.7977 104.949 91.2249 105.062 90.6903 105.282C90.1556 105.502 89.6696 105.826 89.26 106.234C88.8503 106.642 88.5251 107.127 88.3028 107.661C88.0806 108.195 87.9656 108.767 87.9645 109.345V206.869C87.9656 207.448 88.0806 208.02 88.3028 208.554C88.5251 209.088 88.8503 209.573 89.26 209.981C89.6696 210.389 90.1556 210.712 90.6903 210.933C91.2249 211.153 91.7977 211.266 92.376 211.265H136.91C137.488 211.266 138.061 211.153 138.596 210.933C139.13 210.712 139.616 210.389 140.026 209.981C140.436 209.573 140.761 209.088 140.983 208.554C141.205 208.02 141.32 207.448 141.321 206.869V109.345C141.32 108.767 141.205 108.195 140.983 107.661C140.761 107.127 140.436 106.642 140.026 106.234C139.616 105.826 139.13 105.502 138.596 105.282C138.061 105.062 137.488 104.949 136.91 104.95Z" fill="url(#paint2_linear)"/>
<path d="M136.434 105.765H92.8486C90.374 105.765 88.3679 107.771 88.3679 110.245V206.377C88.3679 208.851 90.374 210.857 92.8486 210.857H136.434C138.908 210.857 140.914 208.851 140.914 206.377V110.245C140.914 107.771 138.908 105.765 136.434 105.765Z" fill="#535461"/>
<path d="M137.045 115.541H92.2376V201.081H137.045V115.541Z" fill="white"/>
<path d="M109.346 111.06C109.571 111.06 109.753 110.878 109.753 110.653C109.753 110.428 109.571 110.245 109.346 110.245C109.121 110.245 108.938 110.428 108.938 110.653C108.938 110.878 109.121 111.06 109.346 111.06Z" fill="white"/>
<path d="M119.936 110.245H111.79C111.565 110.245 111.382 110.428 111.382 110.653C111.382 110.878 111.565 111.06 111.79 111.06H119.936C120.161 111.06 120.344 110.878 120.344 110.653C120.344 110.428 120.161 110.245 119.936 110.245Z" fill="white"/>
<path d="M114.437 208.006C116.012 208.006 117.289 206.729 117.289 205.155C117.289 203.58 116.012 202.303 114.437 202.303C112.863 202.303 111.586 203.58 111.586 205.155C111.586 206.729 112.863 208.006 114.437 208.006Z" fill="white"/>
<path d="M82.9869 218.434C82.9869 218.434 77.5856 200.104 84.0012 186.605C86.7321 180.962 87.5583 174.586 86.3556 168.433C85.7609 165.519 84.9006 162.665 83.7853 159.908" stroke="#535461" stroke-width="2" stroke-miterlimit="10"/>
<path d="M87.761 151.378C87.761 153.627 83.6876 160.14 83.6876 160.14C83.6876 160.14 79.6143 153.623 79.6143 151.378C79.6143 150.298 80.0434 149.262 80.8073 148.498C81.5712 147.734 82.6073 147.305 83.6876 147.305C84.7679 147.305 85.804 147.734 86.5679 148.498C87.3318 149.262 87.761 150.298 87.761 151.378Z" fill="#EE4540"/>
<path d="M94.5022 163.826C93.2802 165.712 86.3229 168.971 86.3229 168.971C86.3229 168.971 86.4491 161.289 87.6712 159.403C87.9491 158.927 88.3204 158.513 88.7628 158.186C89.2052 157.858 89.7094 157.623 90.245 157.496C90.7806 157.369 91.3364 157.351 91.8789 157.445C92.4215 157.538 92.9394 157.741 93.4015 158.04C93.8636 158.339 94.2602 158.729 94.5674 159.186C94.8747 159.643 95.0861 160.157 95.189 160.698C95.2918 161.239 95.284 161.795 95.166 162.332C95.0479 162.87 94.8221 163.378 94.5022 163.826Z" fill="#EE4540"/>
<path d="M94.1928 185.093C92.1846 186.103 84.5349 185.407 84.5349 185.407C84.5349 185.407 88.5227 178.841 90.5268 177.83C91.4837 177.398 92.5707 177.352 93.5608 177.702C94.5509 178.052 95.3677 178.77 95.8407 179.708C96.3137 180.645 96.4063 181.729 96.0993 182.734C95.7922 183.738 95.1092 184.585 94.1928 185.097V185.093Z" fill="#EE4540"/>
<path d="M90.3472 201.138C88.5386 202.474 80.8807 203.077 80.8807 203.077C80.8807 203.077 83.6995 195.932 85.5081 194.596C86.3783 194.016 87.4385 193.792 88.469 193.972C89.4995 194.152 90.4214 194.721 91.0435 195.562C91.6656 196.403 91.9403 197.452 91.8107 198.49C91.6811 199.528 91.157 200.476 90.3472 201.138Z" fill="#EE4540"/>
<path d="M77.7646 169.407C79.394 170.971 86.8849 172.596 86.8849 172.596C86.8849 172.596 85.0478 165.138 83.4347 163.574C83.058 163.172 82.6035 162.85 82.0989 162.629C81.5943 162.407 81.05 162.291 80.499 162.286C79.948 162.281 79.4016 162.388 78.8931 162.6C78.3846 162.812 77.9244 163.125 77.5405 163.521C77.1565 163.916 76.8568 164.385 76.6593 164.899C76.4619 165.414 76.3709 165.963 76.3919 166.514C76.4128 167.064 76.5453 167.605 76.7812 168.103C77.0172 168.601 77.3517 169.046 77.7646 169.411V169.407Z" fill="#EE4540"/>
<path d="M73.5041 188.226C75.5123 189.236 83.162 188.539 83.162 188.539C83.162 188.539 79.1742 181.973 77.1701 180.963C76.6905 180.695 76.1615 180.526 75.615 180.468C75.0685 180.409 74.5158 180.462 73.9902 180.622C73.4646 180.783 72.977 181.049 72.5567 181.403C72.1363 181.757 71.792 182.192 71.5445 182.683C71.2969 183.174 71.1513 183.71 71.1162 184.258C71.0812 184.806 71.1575 185.356 71.3405 185.875C71.5236 186.393 71.8097 186.869 72.1815 187.273C72.5533 187.678 73.0032 188.003 73.5041 188.23V188.226Z" fill="#EE4540"/>
<path d="M71.8748 207.085C73.6833 208.421 81.3412 209.024 81.3412 209.024C81.3412 209.024 78.5225 201.88 76.7139 200.543C75.8437 199.963 74.7835 199.739 73.753 199.919C72.7224 200.099 71.8006 200.669 71.1785 201.51C70.5564 202.351 70.2817 203.399 70.4113 204.437C70.5409 205.475 71.0649 206.423 71.8748 207.085Z" fill="#EE4540"/>
<path d="M341.959 163.545C341.959 163.545 334.219 160.287 328.109 157.843C321.999 155.399 325.665 163.545 325.665 163.545C325.665 163.545 335.849 166.397 335.849 166.804C335.849 167.211 344.403 167.619 344.403 167.619L341.959 163.545Z" fill="#F7C4A7"/>
<path d="M291.873 218.332C291.873 218.369 291.848 218.413 291.836 218.446C291.555 219.143 291.341 219.864 291.196 220.601C291.294 220.283 291.408 219.957 291.539 219.631C291.699 219.212 291.811 218.776 291.873 218.332Z" fill="#DDDBE2"/>
<path d="M253.135 220.943C252.919 221 252.707 221.289 252.508 221.684L252.573 221.66C252.752 221.611 253.058 221.252 253.428 220.723C253.349 220.818 253.249 220.894 253.135 220.943Z" fill="#DDDBE2"/>
<path d="M214.968 247.077H231.739L273.068 230.905C273.068 230.905 302.418 218.926 300.022 241.687C297.626 264.448 293.433 294.995 293.433 294.995C293.433 294.995 280.256 289.006 273.068 290.803C265.88 292.6 270.672 254.265 270.672 254.265C270.672 254.265 211.973 282.417 206.582 278.823C201.191 275.229 199.993 250.072 199.993 250.072L214.968 247.077Z" fill="#2F2E41"/>
<path opacity="0.1" d="M214.968 247.077H231.739L273.068 230.905C273.068 230.905 302.418 218.926 300.022 241.687C297.626 264.448 293.433 294.995 293.433 294.995C293.433 294.995 280.256 289.006 273.068 290.803C265.88 292.6 270.672 254.265 270.672 254.265C270.672 254.265 211.973 282.417 206.582 278.823C201.191 275.229 199.993 250.072 199.993 250.072L214.968 247.077Z" fill="black"/>
<path d="M241.391 194.556L261.688 223.717L309.007 263.25C309.007 263.25 352.732 273.432 346.742 280.62C340.753 287.808 304.215 273.432 304.215 273.432C304.215 273.432 249.708 233.9 247.911 230.905C246.114 227.91 226.348 199.758 226.348 199.758L241.391 194.556Z" fill="#A0616A"/>
<path opacity="0.1" d="M241.391 194.556L261.688 223.717L309.007 263.25C309.007 263.25 352.732 273.432 346.742 280.62C340.753 287.808 304.215 273.432 304.215 273.432C304.215 273.432 249.708 233.9 247.911 230.905C246.114 227.91 226.348 199.758 226.348 199.758L241.391 194.556Z" fill="black"/>
<path d="M229.343 171.008L242.52 196.763C242.52 196.763 239.526 209.342 234.734 210.54C229.942 211.738 209.577 194.967 209.577 194.967L229.343 171.008Z" fill="#D0CDE1"/>
<path opacity="0.1" d="M229.343 171.008L242.52 196.763C242.52 196.763 239.526 209.342 234.734 210.54C229.942 211.738 209.577 194.967 209.577 194.967L229.343 171.008Z" fill="black"/>
<path d="M390.103 233.742L393.995 249.799C394.038 249.978 394.032 250.165 393.976 250.341L376.318 305.52C376.248 305.738 376.106 305.926 375.914 306.052C375.722 306.178 375.493 306.235 375.265 306.212C375.036 306.189 374.823 306.089 374.659 305.928C374.496 305.767 374.392 305.555 374.367 305.327L371.924 283.832C371.908 283.689 371.922 283.544 371.967 283.408L388.174 233.668C388.242 233.46 388.375 233.28 388.554 233.155C388.734 233.031 388.948 232.968 389.167 232.976C389.385 232.984 389.594 233.064 389.763 233.202C389.932 233.34 390.051 233.53 390.103 233.742Z" fill="#2F2E41"/>
<path d="M388.671 235.098L392.264 248.875L376.691 299.188L373.097 283.615L388.671 235.098Z" fill="#F2F2F2"/>
<path d="M310.205 309.97C310.804 311.767 372.498 309.371 373.097 308.772C373.619 308.022 374.061 307.219 374.415 306.376C374.978 305.178 375.493 303.98 375.493 303.98L373.097 284.585L312.002 282.417C312.002 282.417 310.474 298.853 310.163 306.376C310.085 308.275 310.085 309.61 310.205 309.97Z" fill="#2F2E41"/>
<path opacity="0.1" d="M365.311 287.209L366.508 303.98H339.555V287.209H365.311Z" fill="black"/>
<path opacity="0.1" d="M330.57 292.599L330.731 292.568L329.971 299.787H314.997V292.599H330.57Z" fill="black"/>
<path opacity="0.1" d="M310.205 309.97C310.804 311.767 372.498 309.371 373.097 308.772C373.619 308.022 374.061 307.219 374.415 306.376H310.163C310.085 308.275 310.085 309.61 310.205 309.97Z" fill="black"/>
<path d="M238.328 162.622C253.214 162.622 265.282 150.554 265.282 135.668C265.282 120.782 253.214 108.714 238.328 108.714C223.441 108.714 211.374 120.782 211.374 135.668C211.374 150.554 223.441 162.622 238.328 162.622Z" fill="#A0616A"/>
<path d="M236.531 159.627C236.531 159.627 227.546 175.2 225.749 183.586C223.952 191.972 198.795 166.815 198.795 166.815L195.501 158.13C195.501 158.13 219.16 147.048 217.363 138.064C215.567 129.079 236.531 159.627 236.531 159.627Z" fill="#A0616A"/>
<path d="M241.323 206.347L265.881 238.692L324.58 282.417C324.58 282.417 367.108 291.402 357.524 297.99C347.94 304.579 320.387 292.001 320.387 292.001C320.387 292.001 261.089 260.255 248.51 247.077C235.932 233.9 212.572 211.738 212.572 211.738L241.323 206.347Z" fill="#A0616A"/>
<path d="M208.379 256.661L215.567 268.042L258.464 254.546C267.876 251.585 278.197 252.674 286.545 257.934C294.033 262.651 298.824 270.138 288.043 281.219C266.48 303.381 252.104 291.402 252.104 291.402C252.104 291.402 179.628 325.543 167.649 308.772C155.669 292.001 155.07 283.615 155.07 283.615C155.07 283.615 201.191 254.864 208.379 256.661Z" fill="#2F2E41"/>
<path d="M298.225 296.193C298.225 296.193 317.393 308.772 294.631 314.762C271.87 320.751 255.099 312.366 255.099 312.366C255.099 312.366 235.333 312.366 235.333 302.183C235.333 292.001 241.922 290.803 241.922 290.803L262.287 293.798C262.287 293.798 286.845 287.209 298.225 296.193Z" fill="#D0CDE1"/>
<path d="M260.439 128.888C262.274 129.705 264.093 130.673 266.088 130.911C268.082 131.148 270.353 130.452 271.297 128.679C271.807 127.721 271.865 126.595 271.889 125.51C271.961 122.221 271.723 118.665 269.639 116.12C268.312 114.5 266.376 113.479 265.003 111.898C264.019 110.766 263.364 109.393 262.659 108.069C259.989 103.053 256.035 98.2333 250.54 96.7874C248.246 96.1837 245.839 96.2131 243.466 96.2466L229.629 96.4418C227.389 96.4734 225.115 96.5101 222.972 97.1583C218.518 98.505 215.275 102.25 212.305 105.832C210.083 108.512 207.855 111.22 206.187 114.275C203.796 118.735 202.587 123.732 202.675 128.791C202.657 130.089 202.824 131.382 203.173 132.632C203.58 133.779 204.085 134.888 204.682 135.948C207.277 141.045 208.818 147.412 205.896 152.329C210.972 150.255 215.995 147.536 219.344 143.193C220.842 141.25 222.017 138.976 224.014 137.551C226.01 136.125 229.264 136.001 230.545 138.094C230.985 138.94 231.212 139.881 231.205 140.835C231.299 142.406 231.296 144.037 231.962 145.462C232.628 146.888 234.214 148.038 235.728 147.611C238.336 146.877 238.086 142.874 240.095 141.056C241.62 139.675 243.974 139.939 245.934 139.312C248.217 138.582 249.93 136.604 250.907 134.414C251.649 132.75 251.638 128.395 253.042 127.493C254.803 126.363 258.807 128.16 260.439 128.888Z" fill="#2F2E41"/>
<path d="M193.361 155.288C194.574 154.965 195.85 154.968 197.061 155.298C200.906 156.33 209.526 159.063 211.374 163.221C213.77 168.612 222.155 176.997 222.155 176.997C222.155 176.997 233.536 188.378 231.14 196.164C228.744 203.951 219.759 212.936 219.759 212.936C219.759 212.936 222.155 250.072 210.176 259.656C198.196 269.24 193.405 262.651 193.405 271.635C193.405 280.62 156.268 308.772 149.08 291.402C149.08 291.402 152.674 259.057 151.476 247.676C150.296 236.46 152.024 166.479 193.361 155.288Z" fill="#D0CDE1"/>
<path d="M212.572 170.409C212.572 170.409 249.109 197.362 242.521 208.743C242.521 208.743 220.358 219.525 215.567 218.926C210.775 218.327 192.207 197.362 187.415 195.566C182.623 193.769 180.227 161.424 212.572 170.409Z" fill="#D0CDE1"/>
<defs>
<linearGradient id="paint0_linear" x1="230.96" y1="185.753" x2="230.96" y2="39.1003" gradientUnits="userSpaceOnUse">
<stop stop-color="#808080" stop-opacity="0.25"/>
<stop offset="0.54" stop-color="#808080" stop-opacity="0.12"/>
<stop offset="1" stop-color="#808080" stop-opacity="0.1"/>
</linearGradient>
<linearGradient id="paint1_linear" x1="48755.6" y1="86534.1" x2="48755.6" y2="41098.8" gradientUnits="userSpaceOnUse">
<stop stop-color="#808080" stop-opacity="0.25"/>
<stop offset="0.54" stop-color="#808080" stop-opacity="0.12"/>
<stop offset="1" stop-color="#808080" stop-opacity="0.1"/>
</linearGradient>
<linearGradient id="paint2_linear" x1="19480" y1="70554.3" x2="19480" y2="42806.2" gradientUnits="userSpaceOnUse">
<stop stop-color="#808080" stop-opacity="0.25"/>
<stop offset="0.54" stop-color="#808080" stop-opacity="0.12"/>
<stop offset="1" stop-color="#808080" stop-opacity="0.1"/>
</linearGradient>
</defs>
</svg>
