<svg width="186" height="173" viewBox="0 0 186 173" fill="none" xmlns="http://www.w3.org/2000/svg">
<path opacity="0.1" d="M22.0994 57.8774C22.0994 57.8774 27.6835 76.2116 32.8462 81.1713C38.0089 86.131 47.8136 111.792 47.8136 111.792C47.8136 111.792 82.8471 104.368 103.986 89.0389C125.124 73.7097 174.379 54.3562 174.379 54.3562L147.504 0C147.504 0 104.791 10.8108 84.6474 29.84C64.5041 48.8691 22.0994 57.8774 22.0994 57.8774Z" fill="black"/>
<path d="M31.743 62.1223C31.743 62.1223 35.5356 77.5155 39.7474 81.4648C43.9592 85.414 50.9995 106.837 50.9995 106.837C50.9995 106.837 81.9624 98.4134 101.283 84.0285C120.603 69.6435 164.667 50.1687 164.667 50.1687L144.433 5.13403C144.433 5.13403 106.576 16.909 87.9039 34.4092C69.2322 51.9094 31.743 62.1223 31.743 62.1223Z" fill="#C72C41"/>
<path opacity="0.1" d="M100.569 74.8323C104.735 72.8921 104.739 64.075 100.578 55.1387C96.4167 46.2025 89.6656 40.5311 85.499 42.4714C81.3325 44.4116 81.3283 53.2287 85.4896 62.165C89.6509 71.1012 96.402 76.7726 100.569 74.8323Z" fill="black"/>
<path opacity="0.1" d="M23.4181 58.229C23.4181 58.229 20.4844 77.1689 22.9804 83.8787C25.4764 90.5886 23.1619 117.962 23.1619 117.962C23.1619 117.962 57.9428 126.491 83.6414 121.865C109.34 117.239 162.112 121.201 162.112 121.201L161.515 60.5665C161.515 60.5665 118.345 51.7514 91.936 60.1425C65.5266 68.5335 23.4181 58.229 23.4181 58.229Z" fill="black"/>
<path d="M30.2608 66.2413C30.2608 66.2413 26.9908 81.754 29.0692 87.1406C31.1476 92.5273 28.1839 114.882 28.1839 114.882C28.1839 114.882 59.7323 120.743 83.3832 116.178C107.034 111.613 155.183 113.21 155.183 113.21L156.519 63.8569C156.519 63.8569 117.304 58.0195 92.8846 65.6726C68.4648 73.3257 30.2608 66.2413 30.2608 66.2413Z" fill="#C72C41"/>
<path opacity="0.1" d="M86.7343 107.584C91.33 107.646 95.1636 99.7063 95.2968 89.8496C95.43 79.9929 91.8123 71.9521 87.2166 71.89C82.6208 71.8279 78.7873 79.768 78.6541 89.6247C78.5209 99.4815 82.1385 107.522 86.7343 107.584Z" fill="black"/>
</svg>
