<svg width="72" height="72" viewBox="0 0 72 72" fill="none" xmlns="http://www.w3.org/2000/svg">
<rect width="72" height="72" rx="4" fill="#0C0824"/>
<path d="M23.1035 39.3164V48H16.9336V22.4062H27.1465C29.1035 22.4062 30.832 22.7695 32.332 23.4961C33.8438 24.2109 35.0098 25.2363 35.8301 26.5723C36.6621 27.8965 37.0781 29.4023 37.0781 31.0898C37.0781 33.5859 36.1816 35.584 34.3887 37.084C32.6074 38.5723 30.1582 39.3164 27.041 39.3164H23.1035ZM23.1035 34.5527H27.1465C28.3418 34.5527 29.25 34.2539 29.8711 33.6562C30.5039 33.0586 30.8203 32.2148 30.8203 31.125C30.8203 29.9297 30.498 28.9746 29.8535 28.2598C29.209 27.5449 28.3301 27.1816 27.2168 27.1699H23.1035V34.5527ZM50.0684 42.6562C50.0684 42.1523 49.8047 41.748 49.2773 41.4434C48.75 41.1387 47.748 40.8223 46.2715 40.4941C44.7949 40.166 43.5762 39.7383 42.6152 39.2109C41.6543 38.6719 40.9219 38.0215 40.418 37.2598C39.9141 36.498 39.6621 35.625 39.6621 34.6406C39.6621 32.8945 40.3828 31.459 41.8242 30.334C43.2656 29.1973 45.1523 28.6289 47.4844 28.6289C49.9922 28.6289 52.0078 29.1973 53.5312 30.334C55.0547 31.4707 55.8164 32.9648 55.8164 34.8164H49.875C49.875 33.293 49.0723 32.5312 47.4668 32.5312C46.8457 32.5312 46.3242 32.707 45.9023 33.0586C45.4805 33.3984 45.2695 33.8262 45.2695 34.3418C45.2695 34.8691 45.5273 35.2969 46.043 35.625C46.5586 35.9531 47.3789 36.2227 48.5039 36.4336C49.6406 36.6445 50.6367 36.8965 51.4922 37.1895C54.3516 38.1738 55.7812 39.9375 55.7812 42.4805C55.7812 44.2148 55.0078 45.627 53.4609 46.7168C51.9258 47.8066 49.9336 48.3516 47.4844 48.3516C45.8555 48.3516 44.4023 48.0586 43.125 47.4727C41.8477 46.8867 40.8516 46.0898 40.1367 45.082C39.4219 44.0742 39.0645 43.0137 39.0645 41.9004H44.6016C44.625 42.7793 44.918 43.4238 45.4805 43.834C46.043 44.2324 46.7637 44.4316 47.6426 44.4316C48.4512 44.4316 49.0547 44.2676 49.4531 43.9395C49.8633 43.6113 50.0684 43.1836 50.0684 42.6562Z" fill="#31C5F0"/>
</svg>
