<svg width="17" height="20" viewBox="0 0 17 20" fill="none" xmlns="http://www.w3.org/2000/svg">
<path d="M13.248 0.883999C14.328 0.883999 15.144 1.208 15.696 1.856C16.248 2.504 16.524 3.284 16.524 4.196C16.524 5.084 16.26 5.816 15.732 6.392C15.228 6.944 14.556 7.22 13.716 7.22C12.9 7.22 12.252 7.016 11.772 6.608C11.292 6.176 11.052 5.612 11.052 4.916C11.052 3.764 11.58 2.828 12.636 2.108C12.54 2.084 12.396 2.072 12.204 2.072C11.964 2.072 11.772 2.096 11.628 2.144C10.716 2.288 9.936 2.84 9.288 3.8C8.664 4.76 8.352 5.744 8.352 6.752V16.292C8.352 17.396 8.616 18.164 9.144 18.596C9.696 19.028 10.56 19.244 11.736 19.244V20C11.4 20 11.124 19.988 10.908 19.964C8.46 19.892 6.828 19.856 6.012 19.856C5.364 19.856 3.888 19.892 1.584 19.964C1.392 19.988 1.152 20 0.864 20V19.244C1.728 19.244 2.328 19.064 2.664 18.704C3 18.32 3.168 17.636 3.168 16.652V5.312C3.168 4.208 3 3.404 2.664 2.9C2.328 2.396 1.728 2.144 0.864 2.144V1.388C1.632 1.46 2.376 1.496 3.096 1.496C5.232 1.496 6.984 1.328 8.352 0.992V4.34C8.808 3.308 9.468 2.48 10.332 1.856C11.196 1.208 12.168 0.883999 13.248 0.883999Z" fill="white"/>
</svg>
