<svg width="82" height="73" viewBox="0 0 82 73" fill="none" xmlns="http://www.w3.org/2000/svg">
<path d="M40.7288 43.9588C44.7455 43.9588 48.0018 40.7026 48.0018 36.6858C48.0018 32.6691 44.7455 29.4128 40.7288 29.4128C36.712 29.4128 33.4558 32.6691 33.4558 36.6858C33.4558 40.7026 36.712 43.9588 40.7288 43.9588Z" fill="#007ACC"/>
<path d="M40.7287 53.3611C31.9869 53.5726 23.2671 52.3942 14.895 49.8701C11.0276 48.6441 7.42057 46.7129 4.25614 44.1739C3.04863 43.3066 2.04304 42.1882 1.30838 40.8957C0.573729 39.6031 0.127392 38.1669 0 36.6857C0 31.8768 5.28309 27.1639 14.1328 24.0801C22.7287 21.3477 31.7099 20.0234 40.7287 20.1586C49.627 20.0342 58.4879 21.3346 66.9754 24.0103C70.7 25.1977 74.1847 27.0357 77.2681 29.4389C78.4549 30.2658 79.4455 31.3436 80.1694 32.5959C80.8934 33.8483 81.333 35.2445 81.4573 36.6857C81.4573 41.6837 75.5517 46.7486 66.0386 49.8963C57.8287 52.3382 49.2928 53.5067 40.7287 53.3611V53.3611ZM40.7287 23.638C32.1003 23.5226 23.5087 24.7816 15.2762 27.3675C7.13042 30.2098 3.47939 34.0965 3.47939 36.6769C3.47939 39.3767 7.40389 43.6212 16.0209 46.5682C24.0301 48.9708 32.3694 50.0891 40.7287 49.8818C48.9221 50.0283 57.0897 48.9196 64.9477 46.5944C73.8934 43.6299 77.9663 39.3796 77.9663 36.6857C77.8195 35.7612 77.4826 34.8772 76.9769 34.0896C76.4711 33.3019 75.8075 32.6277 75.028 32.1095C72.2694 29.9775 69.1564 28.3486 65.832 27.2977C57.7126 24.7486 49.238 23.5131 40.7287 23.638V23.638Z" fill="#007ACC"/>
<path d="M24.2048 72.9602C22.8476 72.9913 21.5065 72.6621 20.3181 72.006C16.1521 69.603 14.7092 62.6733 16.4576 53.4657C18.3854 44.654 21.7256 36.2122 26.3488 28.467C30.6857 20.6969 36.2377 13.6706 42.7945 7.6547C45.6838 5.02102 49.0169 2.92012 52.6392 1.4494C53.9494 0.83538 55.3786 0.51709 56.8255 0.51709C58.2724 0.51709 59.7016 0.83538 61.0118 1.4494C65.3436 3.94548 66.7779 11.5908 64.756 21.4035C62.7687 29.7371 59.5152 37.7166 55.1091 45.064C50.9249 52.7424 45.5477 59.7074 39.1784 65.6988C36.1842 68.4358 32.7093 70.5949 28.9293 72.0671C27.416 72.6287 25.8187 72.9307 24.2048 72.9602V72.9602ZM29.3628 30.1951C24.9527 37.6116 21.7513 45.6828 19.8788 54.1057C18.27 62.586 19.8148 67.6858 22.0607 68.9833C24.388 70.3303 30.0377 69.0531 36.8976 63.0602C42.9778 57.3202 48.1103 50.6531 52.1039 43.3068C56.3249 36.2826 59.4458 28.6536 61.358 20.685C63.2606 11.4483 61.6169 5.79282 59.2838 4.44877C58.4093 4.11371 57.4748 3.96372 56.5394 4.00829C55.604 4.05285 54.6881 4.291 53.8494 4.70769C50.6251 6.0382 47.6608 7.92708 45.0927 10.2875C38.8283 16.05 33.5249 22.7765 29.3831 30.2126L29.3628 30.1951Z" fill="#007ACC"/>
<path d="M57.2443 72.998C53.3023 72.998 48.2956 70.6125 43.0823 66.1294C36.4107 60.0587 30.7648 52.949 26.3632 45.0756C21.7979 37.4371 18.4842 29.1174 16.5476 20.4318C15.7078 16.6106 15.5521 12.6707 16.088 8.79509C16.2118 7.35739 16.6496 5.96437 17.3704 4.71426C18.0912 3.46416 19.0775 2.3874 20.2597 1.55994C24.5857 -0.944876 31.9256 1.62976 39.4168 8.28016C45.6441 14.1631 50.9325 20.9663 55.0973 28.4525C59.6598 35.9127 63.0083 44.0502 65.0176 52.5609C65.8936 56.5224 66.0288 60.6118 65.4162 64.6224C65.2704 66.1015 64.8066 67.5315 64.0564 68.8145C63.3061 70.0975 62.2874 71.2031 61.0699 72.0554C59.9008 72.7034 58.5805 73.0287 57.2443 72.998V72.998ZM29.3742 43.3243C33.5967 50.8487 38.9899 57.6531 45.3515 63.482C51.8943 69.1113 57.0843 70.3215 59.3156 69.0095C61.643 67.6567 63.3594 62.1351 61.5906 53.201C59.6527 45.0754 56.441 37.3078 52.0746 30.1864C48.1002 23.0214 43.0525 16.5069 37.1069 10.8693C30.055 4.60877 24.3355 3.20945 22.0053 4.55931C21.279 5.14953 20.6829 5.88393 20.2548 6.71614C19.8267 7.54836 19.5758 8.4603 19.5179 9.39438C19.0554 12.8508 19.206 16.3616 19.963 19.7656C21.8258 28.0718 25.0039 36.0269 29.3771 43.3301L29.3742 43.3243Z" fill="#007ACC"/>
</svg>
