<svg width="120" height="72" viewBox="0 0 120 72" fill="none" xmlns="http://www.w3.org/2000/svg">
<path d="M60 0C44.0002 0 33.9998 8.00016 30 24C36 15.9998 42.9998 12.9998 51 15C55.5642 16.1409 58.8267 19.4527 62.438 23.1178C68.3208 29.0892 75.1289 36 90 36C106 36 116 27.9998 120 12C114 20.0002 107 23.0002 99 21C94.4358 19.8591 91.1733 16.5473 87.562 12.8822C81.6792 6.91078 74.8711 0 60 0ZM30 36C14.0002 36 3.99984 44.0002 0 60C6 51.9998 12.9998 48.9998 21 51C25.5642 52.1409 28.8267 55.4527 32.438 59.1178C38.3208 65.0892 45.1289 72 60 72C75.9998 72 86.0002 63.9998 90 48C84 56.0002 77.0002 59.0002 69 57C64.4358 55.8591 61.1733 52.5473 57.562 48.8822C51.6792 42.9108 44.8711 36 30 36Z" fill="url(#paint0_linear)"/>
<defs>
<linearGradient id="paint0_linear" x1="-3.3336" y1="23.04" x2="100.306" y2="82.7968" gradientUnits="userSpaceOnUse">
<stop stop-color="#2298BD"/>
<stop offset="1" stop-color="#0ED7B5"/>
</linearGradient>
</defs>
</svg>
