<svg width="472" height="411" viewBox="0 0 472 411" fill="none" xmlns="http://www.w3.org/2000/svg">
<path opacity="0.2" fill-rule="evenodd" clip-rule="evenodd" d="M284.041 0.0215703C341.622 2.08052 251.55 101.829 284.041 149.392C312.471 191.007 436.312 175.813 438.523 226.157C440.934 281.032 492.698 355.402 461.175 400.392C427.334 448.689 249.272 310.681 190.675 303.892C136.474 297.611 78.5152 442.776 44.1749 400.392C14.4427 363.695 5.24124 245.842 0.174825 198.892C-5.68192 144.618 137.332 241.735 171.175 198.892C207.909 152.39 224.804 -2.09663 284.041 0.0215703Z" fill="#EE4540"/>
<path d="M440.201 75H34.8234C33.2793 75.0014 31.7989 75.6154 30.7071 76.7072C29.6153 77.7991 29.0014 79.2795 29 80.8235V355.519C29.0014 357.063 29.6153 358.543 30.7071 359.635C31.7989 360.727 33.2793 361.341 34.8234 361.342H440.201C441.043 361.342 441.875 361.16 442.639 360.807C443.404 360.454 444.083 359.939 444.629 359.299C444.675 359.248 444.718 359.195 444.756 359.138C445.104 358.713 445.385 358.238 445.591 357.729C445.884 357.029 446.034 356.277 446.031 355.519V80.8236C446.03 79.2784 445.415 77.7971 444.321 76.7052C443.228 75.6132 441.746 74.9999 440.201 75ZM444.368 355.519C444.369 356.331 444.13 357.126 443.68 357.803C443.281 358.398 442.739 358.885 442.104 359.218C441.516 359.522 440.863 359.68 440.201 359.679H34.8234C33.7203 359.678 32.6628 359.239 31.8828 358.459C31.1028 357.679 30.6641 356.622 30.6627 355.519V80.8236C30.6641 79.7205 31.1028 78.663 31.8828 77.883C32.6628 77.103 33.7203 76.6643 34.8234 76.6629H440.201C441.305 76.6628 442.364 77.1009 443.146 77.881C443.927 78.6611 444.367 79.7194 444.368 80.8236V355.519Z" fill="#3F3D56"/>
<path d="M445.196 98.3404H29.8298V100.005H445.196V98.3404Z" fill="#3F3D56"/>
<path d="M43.9807 92.4803C46.739 92.4803 48.9751 90.2443 48.9751 87.486C48.9751 84.7276 46.739 82.4916 43.9807 82.4916C41.2224 82.4916 38.9863 84.7276 38.9863 87.486C38.9863 90.2443 41.2224 92.4803 43.9807 92.4803Z" fill="#3F3D56"/>
<path d="M58.3396 92.4803C61.0979 92.4803 63.334 90.2443 63.334 87.486C63.334 84.7276 61.0979 82.4916 58.3396 82.4916C55.5813 82.4916 53.3452 84.7276 53.3452 87.486C53.3452 90.2443 55.5813 92.4803 58.3396 92.4803Z" fill="#3F3D56"/>
<path d="M72.6982 92.4803C75.4566 92.4803 77.6926 90.2443 77.6926 87.486C77.6926 84.7276 75.4566 82.4916 72.6982 82.4916C69.9399 82.4916 67.7039 84.7276 67.7039 87.486C67.7039 90.2443 69.9399 92.4803 72.6982 92.4803Z" fill="#3F3D56"/>
<path d="M395.94 219.034H72.039C69.029 219.03 66.1432 217.833 64.0148 215.704C61.8864 213.576 60.6892 210.69 60.6858 207.68V138.893C60.6892 135.883 61.8864 132.997 64.0148 130.869C66.1432 128.74 69.029 127.543 72.039 127.54H395.94C398.95 127.543 401.836 128.74 403.965 130.869C406.093 132.997 407.29 135.883 407.294 138.893V207.68C407.29 210.69 406.093 213.576 403.965 215.704C401.836 217.833 398.95 219.03 395.94 219.034ZM72.039 128.875C69.3831 128.878 66.8369 129.935 64.9589 131.813C63.0809 133.691 62.0245 136.237 62.0215 138.893V207.68C62.0245 210.336 63.0809 212.882 64.9589 214.76C66.8369 216.638 69.3831 217.695 72.039 217.698H395.94C398.596 217.695 401.143 216.638 403.021 214.76C404.899 212.882 405.955 210.336 405.958 207.68V138.893C405.955 136.237 404.899 133.691 403.021 131.813C401.143 129.935 398.596 128.878 395.94 128.875H72.039Z" fill="#F2F2F2"/>
<path d="M143.498 343.251H72.039C69.029 343.248 66.1432 342.051 64.0148 339.922C61.8864 337.794 60.6892 334.908 60.6858 331.898V281.142C60.6892 278.132 61.8864 275.247 64.0148 273.118C66.1432 270.99 69.029 269.793 72.039 269.789H143.498C146.508 269.793 149.394 270.99 151.522 273.118C153.65 275.247 154.848 278.132 154.851 281.142V331.898C154.848 334.908 153.65 337.794 151.522 339.922C149.394 342.051 146.508 343.248 143.498 343.251ZM72.039 271.125C69.3831 271.128 66.8369 272.184 64.9589 274.062C63.0809 275.94 62.0245 278.487 62.0215 281.142V331.898C62.0245 334.554 63.0809 337.1 64.9589 338.978C66.8369 340.856 69.3831 341.913 72.039 341.916H143.498C146.154 341.913 148.7 340.856 150.578 338.978C152.456 337.1 153.512 334.554 153.515 331.898V281.142C153.512 278.487 152.456 275.94 150.578 274.062C148.7 272.184 146.154 271.128 143.498 271.125H72.039Z" fill="#F2F2F2"/>
<path d="M395.94 343.251H324.482C321.472 343.248 318.586 342.051 316.457 339.922C314.329 337.794 313.132 334.908 313.128 331.898V281.142C313.132 278.132 314.329 275.247 316.457 273.118C318.586 270.99 321.472 269.793 324.482 269.789H395.94C398.95 269.793 401.836 270.99 403.965 273.118C406.093 275.247 407.29 278.132 407.294 281.142V331.898C407.29 334.908 406.093 337.794 403.965 339.922C401.836 342.051 398.95 343.248 395.94 343.251ZM324.482 271.125C321.826 271.128 319.279 272.184 317.401 274.062C315.523 275.94 314.467 278.487 314.464 281.142V331.898C314.467 334.554 315.523 337.1 317.401 338.978C319.279 340.856 321.826 341.913 324.482 341.916H395.94C398.596 341.913 401.142 340.856 403.02 338.978C404.898 337.1 405.955 334.554 405.958 331.898V281.142C405.955 278.487 404.898 275.94 403.02 274.062C401.142 272.184 398.596 271.128 395.94 271.125H324.482Z" fill="#F2F2F2"/>
<path d="M275.062 343.251H203.603C200.593 343.248 197.707 342.051 195.579 339.922C193.45 337.794 192.253 334.908 192.25 331.898V281.142C192.253 278.132 193.45 275.247 195.579 273.118C197.707 270.99 200.593 269.793 203.603 269.789H275.062C278.072 269.793 280.957 270.99 283.086 273.118C285.214 275.247 286.412 278.132 286.415 281.142V331.898C286.412 334.908 285.214 337.794 283.086 339.922C280.957 342.051 278.072 343.248 275.062 343.251ZM203.603 271.125C200.947 271.128 198.401 272.184 196.523 274.062C194.645 275.94 193.588 278.487 193.585 281.142V331.898C193.588 334.554 194.645 337.1 196.523 338.978C198.401 340.856 200.947 341.913 203.603 341.916H275.062C277.718 341.913 280.264 340.856 282.142 338.978C284.02 337.1 285.076 334.554 285.079 331.898V281.142C285.076 278.487 284.02 275.94 282.142 274.062C280.264 272.184 277.718 271.128 275.062 271.125H203.603Z" fill="#F2F2F2"/>
<path d="M64.6597 130.672L64.3423 131.969L406.467 215.675L406.784 214.378L64.6597 130.672Z" fill="#F2F2F2"/>
<path d="M403.312 130.651L64.3455 214.626L64.6667 215.922L403.634 131.948L403.312 130.651Z" fill="#F2F2F2"/>
<path d="M409.297 242.074H85.3958C82.4743 242.07 79.6734 240.908 77.6076 238.843C75.5418 236.777 74.3798 233.976 74.3765 231.054V162.267C74.3798 159.346 75.5418 156.545 77.6076 154.479C79.6734 152.413 82.4743 151.251 85.3958 151.248H409.297C412.219 151.251 415.02 152.413 417.085 154.479C419.151 156.545 420.313 159.346 420.316 162.267V231.054C420.313 233.976 419.151 236.777 417.085 238.843C415.02 240.908 412.219 242.07 409.297 242.074Z" fill="white"/>
<path d="M196.729 272.805L195.907 273.858L281.501 340.627L282.323 339.574L196.729 272.805Z" fill="#F2F2F2"/>
<path d="M281.928 272.805L197.458 340.398L198.292 341.441L282.763 273.848L281.928 272.805Z" fill="#F2F2F2"/>
<path d="M65.1641 272.805L64.3425 273.858L149.936 340.628L150.758 339.575L65.1641 272.805Z" fill="#F2F2F2"/>
<path d="M150.365 272.805L65.8938 340.398L66.7283 341.441L151.199 273.848L150.365 272.805Z" fill="#F2F2F2"/>
<path d="M317.608 272.804L316.787 273.857L402.381 340.627L403.202 339.573L317.608 272.804Z" fill="#F2F2F2"/>
<path d="M402.807 272.805L318.336 340.398L319.171 341.441L403.642 273.848L402.807 272.805Z" fill="#F2F2F2"/>
<path d="M285.079 391.67H213.621C210.699 391.666 207.898 390.504 205.832 388.438C203.767 386.373 202.605 383.572 202.601 380.65V329.895C202.605 326.973 203.767 324.172 205.832 322.106C207.898 320.041 210.699 318.879 213.621 318.875H285.079C288.001 318.879 290.802 320.041 292.867 322.106C294.933 324.172 296.095 326.973 296.099 329.895V380.65C296.095 383.572 294.933 386.373 292.867 388.438C290.802 390.504 288.001 391.666 285.079 391.67Z" fill="#EC4440"/>
<path d="M322.402 392.671H176.145C175.968 392.671 175.798 392.601 175.673 392.476C175.548 392.351 175.478 392.181 175.478 392.004C175.478 391.826 175.548 391.657 175.673 391.531C175.798 391.406 175.968 391.336 176.145 391.336H322.402C322.579 391.336 322.749 391.406 322.874 391.531C322.999 391.657 323.07 391.826 323.07 392.004C323.07 392.181 322.999 392.351 322.874 392.476C322.749 392.601 322.579 392.671 322.402 392.671Z" fill="#CCCCCC"/>
<path d="M258.668 351.599H239.969C238.552 351.599 237.193 351.036 236.191 350.035C235.189 349.033 234.626 347.674 234.626 346.257C234.626 344.84 235.189 343.481 236.191 342.479C237.193 341.477 238.552 340.914 239.969 340.914H258.668C260.085 340.914 261.444 341.477 262.446 342.479C263.448 343.481 264.011 344.84 264.011 346.257C264.011 347.674 263.448 349.033 262.446 350.035C261.444 351.036 260.085 351.599 258.668 351.599Z" fill="white"/>
<path d="M269.719 369.631H228.981C227.564 369.631 226.205 369.068 225.203 368.066C224.201 367.064 223.638 365.705 223.638 364.288C223.638 362.871 224.201 361.512 225.203 360.51C226.205 359.508 227.564 358.946 228.981 358.946H269.719C271.136 358.946 272.495 359.508 273.497 360.51C274.499 361.512 275.062 362.871 275.062 364.288C275.062 365.705 274.499 367.064 273.497 368.066C272.495 369.068 271.136 369.631 269.719 369.631Z" fill="white"/>
<path d="M154.851 352.935H83.3924C80.4709 352.932 77.67 351.77 75.6042 349.704C73.5384 347.638 72.3763 344.837 72.373 341.916V291.16C72.3763 288.238 73.5384 285.438 75.6042 283.372C77.67 281.306 80.4709 280.144 83.3924 280.141H154.851C157.773 280.144 160.573 281.306 162.639 283.372C164.705 285.438 165.867 288.238 165.87 291.16V341.916C165.867 344.837 164.705 347.638 162.639 349.704C160.573 351.77 157.773 352.932 154.851 352.935Z" fill="#EC4440"/>
<path d="M128.44 312.865H109.74C108.323 312.865 106.964 312.302 105.962 311.3C104.96 310.298 104.397 308.939 104.397 307.522C104.397 306.105 104.96 304.746 105.962 303.744C106.964 302.742 108.323 302.179 109.74 302.179H128.44C129.857 302.179 131.215 302.742 132.217 303.744C133.219 304.746 133.782 306.105 133.782 307.522C133.782 308.939 133.219 310.298 132.217 311.3C131.215 312.302 129.857 312.865 128.44 312.865Z" fill="white"/>
<path d="M139.491 330.896H98.7526C97.3356 330.896 95.9767 330.333 94.9747 329.332C93.9728 328.33 93.4099 326.971 93.4099 325.554C93.4099 324.137 93.9728 322.778 94.9747 321.776C95.9767 320.774 97.3356 320.211 98.7526 320.211H139.491C140.908 320.211 142.267 320.774 143.269 321.776C144.271 322.778 144.833 324.137 144.833 325.554C144.833 326.971 144.271 328.33 143.269 329.332C142.267 330.333 140.908 330.896 139.491 330.896Z" fill="white"/>
<path d="M411.301 372.302H339.842C336.921 372.299 334.12 371.137 332.054 369.071C329.988 367.005 328.826 364.204 328.823 361.283V310.527C328.826 307.606 329.988 304.805 332.054 302.739C334.12 300.673 336.921 299.511 339.842 299.508H411.301C414.222 299.511 417.023 300.673 419.089 302.739C421.155 304.805 422.317 307.606 422.32 310.527V361.283C422.317 364.204 421.155 367.005 419.089 369.071C417.023 371.137 414.222 372.299 411.301 372.302Z" fill="#E6E6E6"/>
<path d="M384.889 332.232H366.19C364.773 332.232 363.414 331.669 362.412 330.667C361.41 329.665 360.847 328.306 360.847 326.889C360.847 325.472 361.41 324.113 362.412 323.111C363.414 322.11 364.773 321.547 366.19 321.547H384.889C386.306 321.547 387.665 322.11 388.667 323.111C389.669 324.113 390.232 325.472 390.232 326.889C390.232 328.306 389.669 329.665 388.667 330.667C387.665 331.669 386.306 332.232 384.889 332.232Z" fill="white"/>
<path d="M395.94 350.264H355.202C353.785 350.264 352.426 349.701 351.424 348.699C350.423 347.697 349.86 346.338 349.86 344.921C349.86 343.504 350.423 342.145 351.424 341.143C352.426 340.141 353.785 339.578 355.202 339.578H395.94C397.357 339.578 398.716 340.141 399.718 341.143C400.72 342.145 401.283 343.504 401.283 344.921C401.283 346.338 400.72 347.697 399.718 348.699C398.716 349.701 397.357 350.264 395.94 350.264Z" fill="white"/>
<path d="M448.623 373.304H302.367C302.19 373.304 302.02 373.234 301.895 373.108C301.769 372.983 301.699 372.813 301.699 372.636C301.699 372.459 301.769 372.289 301.895 372.164C302.02 372.039 302.19 371.968 302.367 371.968H448.623C448.8 371.968 448.97 372.039 449.096 372.164C449.221 372.289 449.291 372.459 449.291 372.636C449.291 372.813 449.221 372.983 449.096 373.108C448.97 373.234 448.8 373.304 448.623 373.304Z" fill="#CCCCCC"/>
<path d="M319.987 240.895V241.74H177.27V240.856L178.038 239.769L223.284 175.892C223.494 175.602 223.769 175.366 224.088 175.203C224.407 175.04 224.759 174.955 225.117 174.955C225.475 174.955 225.828 175.04 226.147 175.203C226.466 175.366 226.741 175.602 226.951 175.892L257.291 218.726L278.888 188.503C279.098 188.214 279.373 187.979 279.691 187.817C280.009 187.654 280.361 187.57 280.718 187.57C281.075 187.57 281.427 187.654 281.745 187.817C282.063 187.979 282.338 188.214 282.548 188.503L319.219 239.815L319.987 240.895Z" fill="#EC4440"/>
<path d="M176.974 198.395C186.148 198.395 193.585 190.958 193.585 181.784C193.585 172.61 186.148 165.173 176.974 165.173C167.8 165.173 160.363 172.61 160.363 181.784C160.363 190.958 167.8 198.395 176.974 198.395Z" fill="#EC4440"/>
<path d="M409.297 242.408H85.3957C82.3857 242.404 79.4999 241.207 77.3715 239.079C75.2431 236.95 74.0459 234.065 74.0425 231.055V162.267C74.0459 159.257 75.2431 156.371 77.3715 154.243C79.4999 152.115 82.3857 150.917 85.3957 150.914H409.297C412.307 150.917 415.193 152.115 417.321 154.243C419.45 156.371 420.647 159.257 420.65 162.267V231.055C420.647 234.065 419.45 236.95 417.321 239.079C415.193 241.207 412.307 242.404 409.297 242.408ZM85.3957 152.25C82.7398 152.253 80.1936 153.309 78.3156 155.187C76.4376 157.065 75.3812 159.611 75.3782 162.267V231.055C75.3812 233.71 76.4376 236.257 78.3156 238.135C80.1936 240.013 82.7398 241.069 85.3957 241.072H409.297C411.953 241.069 414.499 240.013 416.377 238.135C418.255 236.257 419.312 233.71 419.315 231.055V162.267C419.312 159.611 418.255 157.065 416.377 155.187C414.499 153.309 411.953 152.253 409.297 152.25H85.3957Z" fill="#3F3D56"/>
</svg>
