<svg width="201" height="104" viewBox="0 0 201 104" fill="none" xmlns="http://www.w3.org/2000/svg">
<path d="M99.062 0.00193729C31.4486 -0.391789 0 59.3599 0 59.3599L64.0763 93.1623C64.0763 93.1623 71.9379 68.79 99.8494 69.5753C101.815 69.6285 103.776 69.8024 105.721 70.096L126.939 3.77569C117.85 1.31156 108.479 0.0429516 99.062 0.00193729Z" fill="#EE4540"/>
<path d="M126.939 3.7757L105.721 70.1024C128.875 73.6202 135.62 93.1623 135.62 93.1623L200.09 60.9327C200.09 60.9327 175.866 17.0634 126.939 3.7757Z" fill="#E0E0E0"/>
<path d="M105.652 98.909L127.193 2.66553L97.0891 96.5424C96.7202 97.0586 96.4594 97.644 96.3221 98.2634C96.1848 98.8828 96.1739 99.5235 96.29 100.147C96.4062 100.771 96.647 101.365 96.998 101.893C97.3491 102.422 97.8031 102.874 98.3331 103.223C98.863 103.572 99.4578 103.81 100.082 103.924C100.706 104.037 101.347 104.024 101.966 103.884C102.585 103.744 103.169 103.481 103.684 103.11C104.198 102.739 104.633 102.268 104.961 101.725V101.712C105.402 100.997 105.642 100.175 105.656 99.335C105.669 99.1866 105.663 99.0489 105.652 98.909Z" fill="#535461"/>
</svg>
