<svg width="488" height="452" viewBox="0 0 488 452" fill="none" xmlns="http://www.w3.org/2000/svg">
<path opacity="0.2" d="M257.355 47.3521C253.288 44.7149 248.973 42.2518 244.364 41.0822C231.821 37.9039 220.342 45.4921 216.379 55.6729C212.415 65.8537 214.24 77.9363 216.737 89.4828C219.233 101.029 222.36 112.847 220.849 123.914C220.092 129.436 218.005 134.868 213.42 138.054C206.351 142.963 195.084 141.251 185.984 136.785C176.885 132.32 169.152 125.528 160.807 119.753C157.304 117.333 153.585 115.035 149.567 113.936C145.162 112.721 140.704 113.004 136.441 113.532C119.78 115.641 103.377 122.369 97.0362 136.064C89.8461 151.582 97.5236 171.975 109.834 187.9C113.898 193.192 118.527 198.249 121.435 204.007C129.09 219.186 123.097 235.27 114.137 247.231C105.177 259.192 93.2548 269.371 87.9181 283.381C81.7407 299.699 85.8025 320.309 98.3846 336.435C109.594 350.803 128.04 361.526 145.696 361.621C154.308 361.66 162.281 359.289 169.743 356.36C180.796 352.054 191.245 346.332 200.828 339.336C205.288 336.066 209.84 332.402 215.892 331.928C219.596 331.623 223.56 332.605 227.347 333.795C238.759 337.385 249.618 343.076 260.961 346.99C272.303 350.904 284.862 352.957 294.718 349.019C308.681 343.421 313.103 328.057 320.499 315.984C337.352 288.425 372.407 275.909 396.167 253.505C403.929 246.185 410.745 237.007 410.124 225.882C409.701 218.331 405.859 210.73 401.173 203.812C390.86 188.595 376.392 175.811 362.145 163.266C342.342 145.833 315.702 128.926 306.236 105.746C297.154 83.4982 279.867 61.0499 257.355 47.3521Z" fill="#EE4540"/>
<path d="M488 175.288H35.75V258.914H488V175.288Z" fill="url(#paint0_linear)"/>
<path d="M484.699 178.025H38.3909V254.469H484.699V178.025Z" fill="white"/>
<path d="M325.248 193.631H65.8027V239.127H325.248V193.631Z" fill="#F5F5F5"/>
<path d="M425.891 196.534C422.722 193.237 418.677 190.912 414.233 189.834C409.788 188.756 405.128 188.969 400.8 190.448C396.473 191.927 392.657 194.61 389.802 198.183C386.946 201.756 385.17 206.069 384.682 210.617C384.193 215.164 385.013 219.756 387.044 223.854C389.076 227.951 392.235 231.384 396.15 233.748C400.065 236.113 404.573 237.31 409.145 237.201C413.717 237.091 418.163 235.679 421.961 233.129L439.328 251.195C439.543 251.418 439.838 251.547 440.148 251.553C440.458 251.559 440.758 251.442 440.981 251.227L445.309 247.066C445.533 246.851 445.662 246.556 445.668 246.246C445.674 245.936 445.557 245.637 445.342 245.413L427.974 227.348C431.304 222.786 432.92 217.197 432.539 211.562C432.158 205.927 429.805 200.606 425.891 196.534ZM420.482 225.573C418.032 227.929 414.938 229.505 411.592 230.102C408.246 230.699 404.798 230.291 401.684 228.929C398.571 227.567 395.93 225.312 394.098 222.449C392.266 219.587 391.324 216.245 391.39 212.847C391.457 209.449 392.53 206.147 394.474 203.358C396.417 200.57 399.144 198.421 402.309 197.182C405.474 195.943 408.936 195.671 412.255 196.4C415.575 197.128 418.604 198.825 420.96 201.275C424.119 204.56 425.843 208.966 425.753 213.523C425.663 218.08 423.767 222.414 420.482 225.573Z" fill="url(#paint1_linear)"/>
<path d="M395.843 208.408C393.911 208.408 393.908 211.411 395.843 211.411C397.776 211.411 397.779 208.408 395.843 208.408Z" fill="url(#paint2_linear)"/>
<path d="M409.315 198.787C406.864 198.713 404.435 199.265 402.256 200.39C400.078 201.516 398.222 203.177 396.863 205.218C396.042 206.503 398.373 207.639 399.19 206.361C401.274 203.099 405.234 201.028 409.513 201.136C411.678 201.212 413.791 201.822 415.663 202.911C417.536 204 419.111 205.535 420.247 207.379C421.068 208.731 423.217 207.502 422.402 206.158C419.78 201.838 414.688 198.909 409.315 198.787Z" fill="url(#paint3_linear)"/>
<path d="M425.891 193.893C422.722 190.596 418.677 188.271 414.233 187.193C409.788 186.115 405.128 186.328 400.8 187.807C396.473 189.286 392.657 191.969 389.802 195.542C386.946 199.115 385.17 203.428 384.682 207.976C384.193 212.523 385.013 217.115 387.044 221.213C389.076 225.31 392.235 228.743 396.15 231.107C400.065 233.472 404.573 234.669 409.145 234.56C413.717 234.45 418.163 233.038 421.961 230.489L439.328 248.554C439.543 248.777 439.838 248.906 440.148 248.912C440.458 248.918 440.758 248.801 440.981 248.586L445.309 244.425C445.533 244.21 445.662 243.915 445.668 243.605C445.674 243.295 445.557 242.996 445.342 242.772L427.974 224.707C431.304 220.145 432.92 214.556 432.539 208.921C432.158 203.286 429.805 197.965 425.891 193.893ZM420.482 222.932C418.032 225.288 414.938 226.864 411.592 227.461C408.246 228.058 404.798 227.65 401.684 226.288C398.571 224.926 395.93 222.671 394.098 219.808C392.266 216.946 391.324 213.604 391.39 210.206C391.457 206.808 392.53 203.506 394.474 200.717C396.417 197.929 399.144 195.78 402.309 194.541C405.474 193.302 408.936 193.03 412.255 193.759C415.575 194.487 418.604 196.184 420.96 198.634C424.119 201.92 425.843 206.325 425.753 210.882C425.663 215.439 423.767 219.773 420.482 222.932Z" fill="#EC4440"/>
<path d="M395.843 205.767C393.911 205.767 393.908 208.77 395.843 208.77C397.776 208.77 397.779 205.767 395.843 205.767Z" fill="#EC4440"/>
<path d="M409.315 196.146C406.864 196.073 404.435 196.624 402.256 197.75C400.078 198.875 398.222 200.536 396.863 202.577C396.042 203.863 398.373 204.998 399.19 203.72C401.274 200.458 405.234 198.388 409.513 198.495C411.678 198.571 413.791 199.181 415.663 200.27C417.536 201.359 419.111 202.894 420.247 204.738C421.068 206.09 423.217 204.861 422.402 203.517C419.78 199.197 414.688 196.268 409.315 196.146Z" fill="#EC4440"/>
<path d="M95.5451 193.323L75.2051 201.115L78.4353 209.547L90.1457 205.06C91.1075 210.834 87.7214 215.658 81.6654 217.978C78.2587 219.226 74.4978 219.084 71.1953 217.582C67.8928 216.079 65.314 213.338 64.016 209.95C62.7181 206.562 62.8053 202.8 64.2587 199.475C65.7122 196.151 68.4153 193.532 71.7838 192.185C74.7139 191.058 77.9449 190.987 80.9217 191.984L84.8382 183.203C81.2958 181.889 77.4876 181.455 73.7405 181.937C69.9933 182.419 66.4189 183.802 63.3239 185.969C60.2289 188.136 57.7056 191.021 55.9705 194.377C54.2354 197.733 53.3403 201.46 53.3618 205.238C53.3834 209.016 54.3211 212.732 56.0944 216.068C57.8677 219.404 60.4238 222.26 63.5433 224.391C66.6629 226.522 70.2528 227.865 74.0053 228.304C77.7577 228.743 81.5606 228.265 85.0879 226.912C96.0009 222.731 102.88 210.992 97.5597 197.104C97.0299 195.773 96.3542 194.505 95.5451 193.323Z" fill="url(#paint4_linear)"/>
<path d="M59.649 224.29L51.188 202.204L69.858 207.714L59.649 224.29Z" fill="#FBBC05"/>
<path d="M51.1876 202.205L69.8576 207.714L73.8202 200.255L92.9246 189.137L88.3689 177.246L47.6082 192.861L51.1876 202.205Z" fill="#EA4335"/>
<path d="M59.6486 224.29L77.6481 194.99L84.6797 193.255L88.3689 177.246L103.989 218.018L63.228 233.633L59.6486 224.29Z" fill="#E3B7B6"/>
<path d="M103.989 218.018L69.8468 207.718L65.4717 206.472L91.9486 186.589L103.989 218.018Z" fill="#FF8583"/>
<path d="M40.7095 253.256C52.551 248.719 64.956 254.017 69.3515 265.49C73.747 276.963 68.0587 289.199 56.2172 293.735C44.3757 298.272 31.9836 292.966 27.587 281.49C23.1904 270.014 28.868 257.793 40.7095 253.256Z" fill="url(#paint5_linear)"/>
<path d="M44.9037 266.891C44.6819 266.171 44.4699 265.459 44.2973 264.716L28.4045 270.805L29.2089 272.904C30.845 272.392 32.4529 271.949 34.0823 271.437C38.4768 273.935 42.8724 276.437 47.3352 278.964L49.5068 284.632C47.8665 285.433 46.2041 286.185 44.5638 286.986L45.2645 288.815L60.9565 282.804L60.2515 280.963C58.514 281.511 56.795 282.115 55.0778 282.715C54.3631 280.7 53.6282 278.631 52.9125 276.613C54.8641 272.885 56.7767 269.172 58.6682 265.455C60.1271 264.781 61.5897 264.109 63.0795 263.365L62.1448 260.926C57.7169 262.68 53.3391 264.414 48.9293 266.216L49.7155 268.268C51.4018 267.737 53.0706 267.152 54.7376 266.571C53.2989 269.242 51.8354 271.865 50.3977 274.539C47.1638 272.682 43.9146 270.778 40.6796 268.919C42.0819 268.206 43.4916 267.554 44.9037 266.891Z" fill="url(#paint6_linear)"/>
<path d="M76.9239 241.681L64.6481 245.693C68.1048 255.317 71.5796 264.988 75.0391 274.611C77.0137 274.081 79.0395 273.535 81.0124 273.01C79.6284 262.537 78.2655 252.094 76.9239 241.681ZM78.4377 285.168L85.3329 282.526L83.1325 276.783L75.4082 279.055C76.4286 281.126 77.4365 283.147 78.4377 285.168Z" fill="url(#paint7_linear)"/>
<path d="M42.2634 255.059C52.8836 250.99 64.0046 255.74 67.9472 266.031C71.8898 276.323 66.7852 287.285 56.1677 291.353C45.5503 295.42 34.4254 290.669 30.4828 280.378C26.5402 270.086 31.6431 259.127 42.2634 255.059Z" fill="#EE5B58"/>
<path d="M46.025 267.29C45.8254 266.644 45.6325 265.998 45.4824 265.339L31.2319 270.799L31.9529 272.681C33.4175 272.222 34.8601 271.823 36.3302 271.362C40.271 273.603 44.2128 275.847 48.2142 278.112L50.1551 283.178C48.684 283.895 47.1931 284.569 45.723 285.289L46.3575 286.945L60.4296 281.554L59.7951 279.898C58.2375 280.389 56.6963 280.931 55.1558 281.467C54.5174 279.659 53.8564 277.808 53.2131 275.996C54.9605 272.653 56.6728 269.327 58.3784 266.001C59.6854 265.398 60.9979 264.793 62.3351 264.127L61.4934 261.93C57.5244 263.505 53.5952 265.058 49.6422 266.675L50.3472 268.515C51.8591 268.038 53.3557 267.513 54.8516 266.994C53.5605 269.391 52.2485 271.742 50.9602 274.138C48.0618 272.473 45.1434 270.764 42.245 269.099C43.492 268.465 44.7543 267.879 46.025 267.29Z" fill="white"/>
<path d="M74.7225 244.683L63.7138 248.28C66.8119 256.909 69.9298 265.582 73.0317 274.213C74.8009 273.74 76.6175 273.248 78.3905 272.777C77.1555 263.383 75.9329 254.018 74.7225 244.683ZM76.0937 283.674L82.278 281.305L80.304 276.152L73.3783 278.189C74.292 280.048 75.1943 281.861 76.0937 283.674Z" fill="#EE5B58"/>
<path d="M114.429 270.724L105.396 268.461L95.3198 242.16L103.326 241.609L110.102 259.295L105.518 268.162L119.078 252.722L113.556 252.395L107.722 246.707L125.309 245.501L128.256 253.193L114.429 270.724Z" fill="url(#paint8_linear)"/>
<path d="M140.765 251.234L140.704 251.258L141.443 253.187L139.305 254.006L131.728 234.23L134.111 234.049L137.226 242.179L137.279 242.159C137.652 239.983 138.851 238.505 140.876 237.727C142.59 237.071 144.16 237.154 145.586 237.979C147.013 238.803 148.112 240.219 148.883 242.228C149.738 244.459 149.88 246.456 149.308 248.22C148.737 249.984 147.508 251.226 145.62 251.945C144.823 252.284 143.949 252.398 143.092 252.272C142.236 252.147 141.431 251.788 140.765 251.234ZM138.64 245.871L139.355 247.736C139.73 248.787 140.503 249.648 141.508 250.134C142.042 250.38 142.622 250.508 143.209 250.51C143.797 250.512 144.378 250.389 144.914 250.147C145.449 249.906 145.927 249.553 146.315 249.111C146.702 248.67 146.991 248.15 147.161 247.588C147.525 246.313 147.368 244.792 146.692 243.026C146.122 241.539 145.332 240.505 144.321 239.925C143.828 239.639 143.276 239.472 142.708 239.438C142.139 239.404 141.571 239.503 141.048 239.727C140.474 239.923 139.952 240.244 139.519 240.668C139.086 241.092 138.753 241.607 138.545 242.176C138.114 243.376 138.148 244.694 138.64 245.871Z" fill="url(#paint9_linear)"/>
<path d="M149.214 231.406C149.034 231.479 148.842 231.515 148.648 231.512C148.454 231.51 148.263 231.468 148.085 231.39C147.903 231.313 147.74 231.199 147.604 231.055C147.469 230.91 147.366 230.739 147.301 230.553C147.227 230.37 147.191 230.174 147.194 229.977C147.198 229.78 147.241 229.586 147.321 229.406C147.401 229.226 147.517 229.064 147.661 228.93C147.806 228.795 147.976 228.692 148.161 228.625C148.344 228.551 148.54 228.515 148.738 228.517C148.936 228.52 149.131 228.562 149.312 228.641C149.492 228.721 149.654 228.835 149.79 228.978C149.925 229.12 150.031 229.288 150.101 229.472C150.172 229.656 150.205 229.851 150.2 230.048C150.194 230.245 150.15 230.438 150.069 230.618C149.988 230.801 149.87 230.965 149.723 231.1C149.576 231.236 149.403 231.34 149.214 231.406ZM156.543 247.415L154.404 248.234L149.282 234.865L151.421 234.046L156.543 247.415Z" fill="url(#paint10_linear)"/>
<path d="M171.186 241.796L169.047 242.615L166.128 234.995C165.042 232.16 163.464 231.139 161.393 231.933C160.884 232.115 160.423 232.41 160.044 232.795C159.665 233.18 159.377 233.646 159.201 234.157C158.809 235.281 158.85 236.512 159.318 237.607L162.237 245.227L160.098 246.046L154.979 232.683L157.117 231.863L157.972 234.094L158.025 234.074C158.387 231.999 159.525 230.595 161.438 229.863C162.899 229.303 164.195 229.348 165.326 229.997C166.458 230.647 167.367 231.862 168.053 233.643L171.186 241.796Z" fill="url(#paint11_linear)"/>
<path d="M185.926 234.927C187.806 239.832 186.397 243.185 181.699 244.984C180.21 245.595 178.597 245.841 176.993 245.703L176.845 243.564C178.4 243.709 179.74 243.609 180.944 243.147C184.123 241.93 185.221 239.53 183.882 236.033L183.322 234.572L183.269 234.593C182.905 236.687 181.701 238.125 179.656 238.909C178.906 239.226 178.094 239.369 177.281 239.327C176.467 239.285 175.674 239.058 174.962 238.664C173.494 237.864 172.324 236.461 171.557 234.459C170.687 232.19 170.592 230.18 171.164 228.426C171.736 226.672 172.995 225.377 174.891 224.651C176.692 223.961 178.244 224.115 179.668 225.226L179.721 225.205L179.052 223.46L181.216 222.631L185.926 234.927ZM181.883 230.775L181.128 228.804C180.745 227.796 179.982 226.978 179.003 226.525C178.024 226.072 176.906 226.021 175.89 226.382C172.792 227.569 172.765 230.812 173.762 233.48C174.735 236.02 176.895 237.792 179.529 236.783C182.164 235.774 182.75 233.154 181.867 230.775L181.883 230.775Z" fill="url(#paint12_linear)"/>
<path d="M115.941 269.163L107.413 267.017L97.8894 242.157L105.457 241.637L111.86 258.352L107.526 266.727L120.342 252.133L115.11 251.829L109.597 246.452L126.228 245.328L129.005 252.577L115.941 269.163Z" fill="#EE5B58"/>
<path d="M140.827 250.744L140.777 250.763L141.479 252.595L139.466 253.366L132.309 234.685L134.561 234.513L137.505 242.197L137.547 242.181C137.9 240.127 139.035 238.733 140.952 237.999C142.571 237.379 144.055 237.458 145.404 238.237C146.754 239.016 147.792 240.356 148.52 242.255C149.33 244.369 149.464 246.257 148.922 247.92C148.381 249.584 147.216 250.744 145.428 251.401C144.675 251.727 143.846 251.837 143.035 251.721C142.223 251.605 141.459 251.267 140.827 250.744ZM138.825 245.669L139.5 247.431C139.858 248.423 140.592 249.236 141.543 249.692C142.048 249.925 142.596 250.046 143.152 250.048C143.707 250.051 144.256 249.934 144.763 249.705C145.269 249.477 145.72 249.143 146.087 248.725C146.453 248.308 146.725 247.816 146.885 247.285C147.224 246.089 147.073 244.654 146.432 242.982C145.894 241.576 145.147 240.599 144.193 240.05C143.727 239.78 143.205 239.622 142.667 239.59C142.13 239.558 141.592 239.652 141.097 239.865C140.555 240.049 140.062 240.353 139.652 240.753C139.243 241.153 138.929 241.64 138.732 242.178C138.332 243.309 138.368 244.55 138.833 245.656L138.825 245.669Z" fill="#EE5B58"/>
<path d="M148.816 231.987C148.646 232.056 148.464 232.09 148.281 232.087C148.097 232.084 147.916 232.045 147.748 231.971C147.577 231.898 147.422 231.79 147.294 231.654C147.167 231.518 147.069 231.356 147.008 231.18C146.938 231.008 146.903 230.824 146.906 230.639C146.909 230.453 146.949 230.27 147.024 230.1C147.099 229.931 147.207 229.778 147.342 229.651C147.477 229.523 147.636 229.425 147.81 229.36C147.983 229.29 148.168 229.255 148.355 229.258C148.542 229.261 148.726 229.301 148.897 229.376C149.067 229.451 149.22 229.559 149.348 229.694C149.477 229.828 149.577 229.987 149.643 230.161C149.71 230.334 149.741 230.519 149.736 230.705C149.731 230.891 149.689 231.074 149.612 231.244C149.537 231.415 149.427 231.569 149.29 231.697C149.154 231.824 148.992 231.923 148.816 231.987ZM155.749 247.128L153.727 247.902L148.887 235.269L150.909 234.494L155.749 247.128Z" fill="#EE5B58"/>
<path d="M169.589 241.825L167.568 242.6L164.806 235.392C163.779 232.712 162.287 231.747 160.33 232.496C159.849 232.669 159.413 232.948 159.055 233.311C158.696 233.675 158.423 234.115 158.258 234.598C157.888 235.661 157.927 236.823 158.368 237.859L161.13 245.066L159.108 245.841L154.268 233.207L156.29 232.433L157.093 234.53L157.143 234.51C157.486 232.55 158.561 231.224 160.37 230.531C161.751 230.002 162.979 230.043 164.053 230.655C165.127 231.266 165.987 232.414 166.632 234.098L169.589 241.825Z" fill="#EE5B58"/>
<path d="M183.519 235.321C185.295 239.957 183.964 243.126 179.525 244.826C178.122 245.401 176.603 245.634 175.092 245.507L174.956 243.481C176.428 243.618 177.696 243.522 178.83 243.087C181.836 241.936 182.873 239.668 181.607 236.364L181.073 234.97L181.023 234.989C180.667 236.976 179.527 238.338 177.603 239.075C176.896 239.376 176.129 239.513 175.362 239.475C174.594 239.437 173.844 239.225 173.17 238.855C171.787 238.106 170.678 236.772 169.954 234.882C169.131 232.735 169.044 230.837 169.59 229.176C170.137 227.515 171.322 226.293 173.115 225.607C174.816 224.955 176.284 225.099 177.629 226.147L177.679 226.128L177.048 224.48L179.069 223.706L183.519 235.321ZM179.684 231.403L178.971 229.541C178.609 228.59 177.89 227.817 176.968 227.389C176.045 226.961 174.991 226.91 174.031 227.247C171.104 228.369 171.078 231.432 172.019 233.956C172.939 236.356 174.981 238.03 177.471 237.076C179.961 236.122 180.517 233.652 179.684 231.403Z" fill="#EE5B58"/>
<path d="M170.949 189.948C169.468 190.515 168.341 192.187 168.341 192.187L168.075 191.493C168.016 191.34 167.931 191.302 167.781 191.36L165.89 192.084C165.858 192.092 165.829 192.107 165.803 192.127C165.777 192.147 165.756 192.173 165.741 192.202C165.726 192.231 165.717 192.263 165.715 192.295C165.713 192.328 165.718 192.361 165.73 192.391L171.407 207.211C171.466 207.364 171.562 207.433 171.716 207.374L173.637 206.638C173.667 206.626 173.695 206.607 173.717 206.583C173.74 206.56 173.758 206.532 173.769 206.501C173.78 206.47 173.784 206.437 173.782 206.405C173.78 206.372 173.77 206.34 173.755 206.311L168.895 193.625C169.361 193.045 169.967 192.593 170.655 192.311C171.687 191.916 172.695 192.118 173.096 193.166L177.574 204.855C177.584 204.888 177.6 204.92 177.623 204.946C177.646 204.973 177.675 204.994 177.707 205.009C177.739 205.023 177.774 205.031 177.809 205.03C177.844 205.03 177.879 205.022 177.911 205.007L179.798 204.284C179.829 204.272 179.856 204.253 179.879 204.229C179.901 204.206 179.919 204.178 179.93 204.147C179.941 204.116 179.946 204.083 179.943 204.051C179.941 204.018 179.932 203.986 179.916 203.957L175.181 191.597C174.468 189.737 172.945 189.183 170.949 189.948Z" fill="url(#paint13_linear)"/>
<path d="M182.797 176.884L180.913 177.606C180.881 177.614 180.851 177.629 180.826 177.649C180.8 177.67 180.779 177.695 180.764 177.724C180.749 177.753 180.74 177.785 180.738 177.818C180.736 177.85 180.741 177.883 180.752 177.914L183.616 185.389C182.909 185.368 182.204 185.472 181.534 185.697C178.467 186.872 177.484 190.616 179.646 196.259C181.498 201.094 184.542 202.904 187.216 201.88C188.331 201.453 189.026 200.445 189.474 199.579L190.155 200.121C190.197 200.167 190.254 200.198 190.316 200.208C190.378 200.218 190.441 200.207 190.496 200.176L191.583 199.759C191.614 199.747 191.642 199.729 191.665 199.705C191.688 199.682 191.706 199.654 191.718 199.623C191.729 199.592 191.734 199.559 191.731 199.526C191.729 199.493 191.72 199.461 191.704 199.432L183.113 177.006C183.054 176.853 182.969 176.815 182.819 176.873L182.797 176.884ZM181.944 194.797C180.753 191.688 180.482 188.259 182.339 187.547C183.012 187.296 183.751 187.289 184.429 187.527L188.627 198.484C188.232 198.977 187.721 199.365 187.141 199.613C185.11 200.388 183.303 198.343 181.948 194.805L181.944 194.797Z" fill="url(#paint14_linear)"/>
<path d="M192.83 181.405C189.685 182.61 189.71 187.323 191.427 191.806C193.225 196.499 196.446 198.28 199.296 197.188C200.445 196.699 201.458 195.938 202.248 194.97C202.288 194.927 202.312 194.87 202.314 194.81C202.316 194.751 202.296 194.693 202.258 194.647L201.638 193.746C201.623 193.719 201.604 193.696 201.58 193.677C201.557 193.658 201.529 193.644 201.5 193.636C201.471 193.628 201.441 193.626 201.411 193.629C201.381 193.633 201.352 193.643 201.326 193.658C200.704 194.095 200.038 194.466 199.339 194.764C197.008 195.657 195.145 193.992 194.091 191.24L193.835 190.571C194.482 190.421 195.122 190.238 195.751 190.022L200.148 188.338L199.661 187.066C197.862 182.371 195.257 180.488 192.837 181.415L192.83 181.405ZM195.197 188.034C194.5 188.301 193.312 188.955 193.312 188.955C193.312 188.955 193.135 188.444 193.01 187.935C192.303 185.255 192.412 183.72 193.477 183.312C194.398 182.959 195.541 184.05 196.585 186.323C196.801 186.796 197.009 187.34 197.009 187.34L195.217 188.027L195.197 188.034Z" fill="url(#paint15_linear)"/>
<path d="M162.674 195.164C161.446 194.055 159.964 193.932 158.547 194.475C157.432 194.97 156.416 195.662 155.548 196.519C155.393 196.674 155.305 196.795 155.36 196.94C155.406 197.036 155.474 197.119 155.559 197.183L156.731 198.314C156.77 198.362 156.823 198.397 156.883 198.413C156.942 198.43 157.006 198.428 157.064 198.407C157.155 198.363 157.23 198.294 157.282 198.208C157.985 197.255 158.543 196.667 159.081 196.461C159.795 196.187 160.462 196.475 161.033 197.075C161.653 197.811 162.128 198.657 162.433 199.57C162.486 199.706 162.553 199.882 162.553 199.882C161.769 199.786 160.974 199.872 160.229 200.133C157.499 201.179 157.021 204.338 158.084 207.113C159.23 210.104 161.79 211.637 163.859 210.844C165.011 210.403 165.794 209.326 166.165 208.209C166.165 208.209 166.876 208.953 166.966 209.04C167.001 209.083 167.05 209.112 167.104 209.121C167.158 209.131 167.214 209.121 167.262 209.093L168.377 208.666C168.407 208.653 168.435 208.635 168.458 208.611C168.48 208.588 168.498 208.56 168.509 208.529C168.52 208.498 168.525 208.465 168.522 208.432C168.52 208.4 168.511 208.368 168.495 208.339L165.196 199.729C164.387 197.616 163.663 196.045 162.685 195.16L162.674 195.164ZM165.315 207.067C165.033 207.728 164.507 208.257 163.847 208.543C163.569 208.649 163.268 208.683 162.973 208.642C162.678 208.601 162.398 208.486 162.159 208.308C161.485 207.869 160.923 207.01 160.526 205.976C159.898 204.336 159.859 202.423 161.142 201.932C161.844 201.667 162.614 201.646 163.329 201.874L165.319 207.068L165.315 207.067Z" fill="url(#paint16_linear)"/>
<path d="M206.991 176.338L205.318 176.979C205.244 177.002 205.179 177.049 205.135 177.113C205.09 177.177 205.069 177.254 205.073 177.332C205.074 177.651 205.079 179.801 205.081 180.692C205.086 181.33 205.133 183.131 205.133 183.131L205.069 183.156C205.069 183.156 204.213 182.157 203.77 181.668C203.412 181.268 201.529 179.156 201.289 178.897C201.162 178.757 201.03 178.622 200.787 178.715L198.939 179.423C198.898 179.441 198.861 179.469 198.832 179.504C198.803 179.538 198.782 179.579 198.771 179.623C198.761 179.667 198.76 179.713 198.769 179.757C198.779 179.801 198.798 179.843 198.826 179.879C198.946 179.992 204.447 185.562 204.447 185.562C204.447 185.562 204.165 194.268 204.138 194.47C204.129 194.523 204.135 194.576 204.154 194.626C204.174 194.675 204.206 194.718 204.247 194.751C204.289 194.784 204.338 194.805 204.391 194.813C204.443 194.82 204.497 194.814 204.546 194.793L206.16 194.175C206.439 194.068 206.487 193.884 206.482 193.62C206.464 192.882 206.463 191.843 206.417 190.255C206.385 189.203 206.275 187.381 206.275 187.381L206.331 187.36C206.331 187.36 207.524 188.805 207.943 189.265C208.996 190.435 210.359 191.965 210.499 192.122C210.64 192.28 210.806 192.389 210.996 192.316L212.819 191.617C213 191.548 213.019 191.304 212.852 191.16C212.484 190.809 209.114 187.246 206.85 184.926C206.85 184.926 207.334 176.798 207.33 176.605C207.326 176.411 207.237 176.237 206.981 176.336L206.991 176.338Z" fill="url(#paint17_linear)"/>
<path d="M152.204 186.047L150.079 186.86C150.003 186.879 149.935 186.926 149.89 186.991C149.845 187.056 149.825 187.135 149.834 187.213C149.858 187.358 150.389 198.192 150.469 199.095C150.521 199.714 150.762 201.937 150.824 202.476L148.576 199.897C147.977 199.167 142.696 193.002 142.511 192.743C142.409 192.603 142.262 192.436 141.988 192.54L139.914 193.335C139.874 193.353 139.839 193.378 139.81 193.411C139.781 193.443 139.76 193.482 139.748 193.523C139.735 193.565 139.732 193.609 139.739 193.652C139.745 193.695 139.76 193.736 139.784 193.772C139.88 193.863 147.444 202.399 150.403 205.633L153.608 213.998C153.666 214.151 153.763 214.22 153.916 214.161L155.868 213.413C155.899 213.401 155.926 213.382 155.949 213.359C155.972 213.335 155.989 213.307 156 213.276C156.011 213.245 156.016 213.213 156.013 213.18C156.011 213.147 156.002 213.115 155.986 213.087L152.803 204.778C152.713 200.771 152.503 186.469 152.513 186.302C152.523 186.135 152.423 185.934 152.164 186.033L152.204 186.047Z" fill="url(#paint18_linear)"/>
<path d="M171.295 190.058C169.917 190.586 168.864 192.144 168.864 192.144L168.616 191.497C168.562 191.354 168.485 191.32 168.343 191.375L166.583 192.049C166.554 192.056 166.527 192.07 166.503 192.089C166.479 192.107 166.46 192.131 166.446 192.158C166.431 192.185 166.423 192.214 166.421 192.244C166.419 192.274 166.423 192.305 166.433 192.333L171.72 206.132C171.774 206.274 171.863 206.339 172.005 206.285L173.792 205.6C173.821 205.588 173.846 205.571 173.867 205.549C173.889 205.527 173.905 205.501 173.915 205.472C173.926 205.444 173.93 205.413 173.928 205.383C173.926 205.352 173.917 205.322 173.903 205.295L169.378 193.485C169.81 192.942 170.373 192.519 171.014 192.254C171.973 191.886 172.914 192.073 173.288 193.048L177.453 203.922C177.462 203.954 177.478 203.983 177.499 204.008C177.52 204.033 177.547 204.053 177.577 204.067C177.607 204.08 177.639 204.087 177.672 204.087C177.705 204.086 177.737 204.079 177.767 204.065L179.526 203.391C179.555 203.379 179.581 203.362 179.602 203.34C179.624 203.318 179.64 203.292 179.651 203.263C179.661 203.235 179.665 203.204 179.663 203.173C179.66 203.143 179.651 203.113 179.637 203.086L175.235 191.596C174.573 189.861 173.157 189.345 171.295 190.058Z" fill="#010202"/>
<path d="M182.328 177.895L180.569 178.569C180.54 178.577 180.512 178.591 180.489 178.609C180.465 178.628 180.445 178.652 180.431 178.678C180.417 178.705 180.409 178.735 180.407 178.765C180.405 178.795 180.409 178.825 180.419 178.854L183.089 185.824C182.431 185.805 181.775 185.903 181.15 186.113C178.293 187.208 177.379 190.691 179.393 195.947C181.118 200.45 183.95 202.134 186.44 201.18C187.488 200.778 188.125 199.844 188.545 199.037L189.179 199.542C189.217 199.584 189.268 199.611 189.323 199.621C189.378 199.631 189.435 199.623 189.485 199.598L190.497 199.21C190.526 199.198 190.551 199.181 190.572 199.159C190.593 199.137 190.61 199.111 190.62 199.082C190.631 199.054 190.635 199.023 190.633 198.993C190.63 198.962 190.622 198.932 190.608 198.905L182.602 178.008C182.547 177.866 182.47 177.831 182.328 177.886L182.328 177.895ZM181.536 194.582C180.427 191.685 180.165 188.498 181.905 187.832C182.531 187.598 183.22 187.591 183.851 187.812L187.759 198.014C187.389 198.475 186.911 198.838 186.367 199.069C184.487 199.789 182.801 197.874 181.539 194.581L181.536 194.582Z" fill="#010202"/>
<path d="M191.669 182.105C188.739 183.228 188.763 187.615 190.362 191.789C192.036 196.158 195.037 197.816 197.686 196.801C198.756 196.346 199.699 195.638 200.435 194.737C200.477 194.695 200.5 194.637 200.501 194.578C200.501 194.518 200.478 194.46 200.437 194.417L199.86 193.58C199.847 193.554 199.829 193.532 199.807 193.514C199.785 193.496 199.76 193.483 199.733 193.475C199.705 193.468 199.677 193.465 199.649 193.469C199.621 193.472 199.594 193.482 199.569 193.496C198.992 193.902 198.373 194.246 197.724 194.523C195.555 195.354 193.82 193.805 192.838 191.24L192.6 190.619C193.203 190.48 193.798 190.309 194.383 190.108L198.476 188.54L198.022 187.355C196.347 182.983 193.92 181.23 191.668 182.093L191.669 182.105ZM193.871 188.28C193.225 188.528 192.106 189.139 192.106 189.139C192.106 189.139 191.942 188.661 191.825 188.188C191.16 185.693 191.279 184.259 192.255 183.886C193.114 183.557 194.175 184.573 195.149 186.691C195.35 187.132 195.544 187.639 195.544 187.639L193.871 188.28Z" fill="#010202"/>
<path d="M163.596 194.917C162.455 193.883 161.08 193.767 159.753 194.275C158.716 194.735 157.771 195.379 156.964 196.175C156.821 196.319 156.741 196.43 156.792 196.561C156.834 196.649 156.898 196.725 156.976 196.784L158.067 197.837C158.103 197.883 158.153 197.916 158.208 197.931C158.264 197.946 158.324 197.943 158.378 197.923C158.463 197.883 158.534 197.819 158.583 197.739C159.236 196.849 159.756 196.304 160.258 196.112C160.925 195.857 161.542 196.125 162.08 196.693C162.656 197.379 163.098 198.167 163.382 199.017C163.431 199.143 163.489 199.296 163.489 199.296C162.764 199.204 162.027 199.278 161.335 199.514C158.792 200.488 158.357 203.427 159.346 206.009C160.415 208.797 162.799 210.221 164.722 209.484C165.796 209.073 166.525 208.071 166.87 207.027C166.87 207.027 167.536 207.731 167.615 207.803C167.647 207.843 167.693 207.871 167.743 207.88C167.794 207.889 167.846 207.88 167.89 207.855L168.919 207.46C168.948 207.449 168.973 207.432 168.994 207.41C169.015 207.388 169.032 207.361 169.042 207.333C169.053 207.304 169.057 207.274 169.055 207.243C169.052 207.213 169.044 207.183 169.03 207.156L165.965 199.157C165.212 197.191 164.537 195.729 163.626 194.905L163.596 194.917ZM166.046 206.003C165.783 206.619 165.294 207.111 164.68 207.377C164.42 207.476 164.14 207.508 163.865 207.47C163.589 207.431 163.328 207.324 163.106 207.158C162.482 206.758 161.956 205.952 161.587 204.987C161.002 203.462 160.96 201.682 162.159 201.222C162.812 200.976 163.529 200.957 164.194 201.169L166.046 206.003Z" fill="#010202"/>
<path d="M204.853 177.384L203.286 177.984C203.217 178.006 203.156 178.05 203.115 178.11C203.074 178.17 203.053 178.242 203.058 178.315C203.058 178.615 203.066 180.614 203.069 181.441C203.074 182.03 203.117 183.712 203.117 183.712L203.056 183.735C203.056 183.735 202.259 182.806 201.846 182.347C201.513 181.976 199.758 180.008 199.537 179.766C199.42 179.635 199.295 179.51 199.072 179.596L197.355 180.254C197.315 180.27 197.28 180.295 197.252 180.327C197.225 180.359 197.205 180.398 197.194 180.439C197.184 180.48 197.184 180.523 197.193 180.565C197.202 180.606 197.221 180.645 197.249 180.678C197.359 180.783 202.474 185.972 202.474 185.972C202.474 185.972 202.209 194.068 202.186 194.268C202.185 194.315 202.194 194.362 202.214 194.405C202.233 194.448 202.263 194.485 202.3 194.514C202.337 194.544 202.381 194.563 202.427 194.573C202.473 194.582 202.521 194.58 202.566 194.567L204.072 193.99C204.328 193.892 204.378 193.72 204.372 193.472C204.358 192.784 204.355 191.816 204.313 190.339C204.283 189.359 204.183 187.661 204.183 187.661L204.236 187.641C204.236 187.641 205.352 188.985 205.738 189.416C206.718 190.505 207.981 191.933 208.121 192.081C208.26 192.229 208.408 192.329 208.583 192.262L210.29 191.608C210.46 191.543 210.464 191.321 210.319 191.184C209.976 190.855 206.848 187.539 204.729 185.38C204.729 185.38 205.178 177.816 205.172 177.633C205.166 177.45 205.085 177.289 204.845 177.381L204.853 177.384Z" fill="#010202"/>
<path d="M153.845 186.425L151.869 187.182C151.796 187.199 151.733 187.242 151.691 187.303C151.648 187.364 151.63 187.439 151.64 187.513C151.663 187.648 152.159 197.747 152.233 198.576C152.286 199.163 152.505 201.221 152.56 201.715L150.469 199.319C149.926 198.644 144.994 192.898 144.823 192.66C144.728 192.53 144.591 192.372 144.334 192.47L142.405 193.209C142.365 193.225 142.33 193.251 142.303 193.283C142.275 193.315 142.255 193.353 142.245 193.395C142.234 193.436 142.234 193.479 142.243 193.52C142.253 193.562 142.272 193.601 142.299 193.633C142.386 193.718 149.431 201.667 152.197 204.674L155.188 212.481C155.243 212.623 155.332 212.688 155.474 212.634L157.294 211.936C157.323 211.925 157.348 211.908 157.37 211.886C157.391 211.864 157.407 211.837 157.417 211.809C157.428 211.78 157.432 211.749 157.43 211.719C157.428 211.688 157.419 211.659 157.405 211.632L154.435 203.881C154.352 200.149 154.169 186.828 154.164 186.68C154.158 186.532 154.077 186.336 153.837 186.428L153.845 186.425Z" fill="#E52620"/>
<defs>
<linearGradient id="paint0_linear" x1="261.875" y1="258.914" x2="261.875" y2="175.288" gradientUnits="userSpaceOnUse">
<stop stop-color="#808080" stop-opacity="0.25"/>
<stop offset="0.53514" stop-color="#808080" stop-opacity="0.12"/>
<stop offset="1" stop-color="#808080" stop-opacity="0.1"/>
</linearGradient>
<linearGradient id="paint1_linear" x1="415.125" y1="251.553" x2="415.125" y2="189.16" gradientUnits="userSpaceOnUse">
<stop stop-color="#B3B3B3" stop-opacity="0.25"/>
<stop offset="0.53514" stop-color="#B3B3B3" stop-opacity="0.1"/>
<stop offset="1" stop-color="#B3B3B3" stop-opacity="0.05"/>
</linearGradient>
<linearGradient id="paint2_linear" x1="395.843" y1="211.411" x2="395.843" y2="208.408" gradientUnits="userSpaceOnUse">
<stop stop-opacity="0.12"/>
<stop offset="0.55135" stop-opacity="0.09"/>
<stop offset="1" stop-opacity="0.02"/>
</linearGradient>
<linearGradient id="paint3_linear" x1="23308.3" y1="2170.84" x2="23308.3" y2="2008.24" gradientUnits="userSpaceOnUse">
<stop stop-opacity="0.12"/>
<stop offset="0.55135" stop-opacity="0.09"/>
<stop offset="1" stop-opacity="0.02"/>
</linearGradient>
<linearGradient id="paint4_linear" x1="29033.5" y1="5951.19" x2="26417" y2="-878.614" gradientUnits="userSpaceOnUse">
<stop stop-color="#808080" stop-opacity="0.25"/>
<stop offset="0.54" stop-color="#808080" stop-opacity="0.12"/>
<stop offset="1" stop-color="#808080" stop-opacity="0.1"/>
</linearGradient>
<linearGradient id="paint5_linear" x1="23776.1" y1="14905" x2="21524.5" y2="9027.83" gradientUnits="userSpaceOnUse">
<stop stop-color="#808080" stop-opacity="0.25"/>
<stop offset="0.54" stop-color="#808080" stop-opacity="0.12"/>
<stop offset="1" stop-color="#808080" stop-opacity="0.1"/>
</linearGradient>
<linearGradient id="paint6_linear" x1="16348.3" y1="5838.02" x2="15722.7" y2="4205.02" gradientUnits="userSpaceOnUse">
<stop stop-color="#808080" stop-opacity="0.25"/>
<stop offset="0.54" stop-color="#808080" stop-opacity="0.12"/>
<stop offset="1" stop-color="#808080" stop-opacity="0.1"/>
</linearGradient>
<linearGradient id="paint7_linear" x1="14352.9" y1="17658.1" x2="12259.7" y2="12194.4" gradientUnits="userSpaceOnUse">
<stop stop-color="#808080" stop-opacity="0.25"/>
<stop offset="0.54" stop-color="#808080" stop-opacity="0.12"/>
<stop offset="1" stop-color="#808080" stop-opacity="0.1"/>
</linearGradient>
<linearGradient id="paint8_linear" x1="15146.9" y1="6272.55" x2="13801.5" y2="2760.65" gradientUnits="userSpaceOnUse">
<stop stop-color="#808080" stop-opacity="0.25"/>
<stop offset="0.54" stop-color="#808080" stop-opacity="0.12"/>
<stop offset="1" stop-color="#808080" stop-opacity="0.1"/>
</linearGradient>
<linearGradient id="paint9_linear" x1="12592.1" y1="6703.18" x2="12037.4" y2="5255.35" gradientUnits="userSpaceOnUse">
<stop stop-color="#808080" stop-opacity="0.25"/>
<stop offset="0.54" stop-color="#808080" stop-opacity="0.12"/>
<stop offset="1" stop-color="#808080" stop-opacity="0.1"/>
</linearGradient>
<linearGradient id="paint10_linear" x1="5812.32" y1="8769.54" x2="5306.41" y2="7448.98" gradientUnits="userSpaceOnUse">
<stop stop-color="#808080" stop-opacity="0.25"/>
<stop offset="0.54" stop-color="#808080" stop-opacity="0.12"/>
<stop offset="1" stop-color="#808080" stop-opacity="0.1"/>
</linearGradient>
<linearGradient id="paint11_linear" x1="11361.2" y1="3567.92" x2="11104.5" y2="2897.79" gradientUnits="userSpaceOnUse">
<stop stop-color="#808080" stop-opacity="0.25"/>
<stop offset="0.54" stop-color="#808080" stop-opacity="0.12"/>
<stop offset="1" stop-color="#808080" stop-opacity="0.1"/>
</linearGradient>
<linearGradient id="paint12_linear" x1="14378" y1="6470.54" x2="13828.2" y2="5035.37" gradientUnits="userSpaceOnUse">
<stop stop-color="#808080" stop-opacity="0.25"/>
<stop offset="0.54" stop-color="#808080" stop-opacity="0.12"/>
<stop offset="1" stop-color="#808080" stop-opacity="0.1"/>
</linearGradient>
<linearGradient id="paint13_linear" x1="9715.58" y1="3266.01" x2="9387.43" y2="2409.45" gradientUnits="userSpaceOnUse">
<stop stop-color="#808080" stop-opacity="0.25"/>
<stop offset="0.54" stop-color="#808080" stop-opacity="0.12"/>
<stop offset="1" stop-color="#808080" stop-opacity="0.1"/>
</linearGradient>
<linearGradient id="paint14_linear" x1="12070.4" y1="5797.46" x2="11326.1" y2="3854.62" gradientUnits="userSpaceOnUse">
<stop stop-color="#808080" stop-opacity="0.25"/>
<stop offset="0.54" stop-color="#808080" stop-opacity="0.12"/>
<stop offset="1" stop-color="#808080" stop-opacity="0.1"/>
</linearGradient>
<linearGradient id="paint15_linear" x1="10746.1" y1="3095.45" x2="10397.7" y2="2186.06" gradientUnits="userSpaceOnUse">
<stop stop-color="#808080" stop-opacity="0.25"/>
<stop offset="0.54" stop-color="#808080" stop-opacity="0.12"/>
<stop offset="1" stop-color="#808080" stop-opacity="0.1"/>
</linearGradient>
<linearGradient id="paint16_linear" x1="9579.37" y1="3600.87" x2="9225.78" y2="2677.9" gradientUnits="userSpaceOnUse">
<stop stop-color="#808080" stop-opacity="0.25"/>
<stop offset="0.54" stop-color="#808080" stop-opacity="0.12"/>
<stop offset="1" stop-color="#808080" stop-opacity="0.1"/>
</linearGradient>
<linearGradient id="paint17_linear" x1="11030.2" y1="2685.8" x2="10709.3" y2="1848.34" gradientUnits="userSpaceOnUse">
<stop stop-color="#808080" stop-opacity="0.25"/>
<stop offset="0.54" stop-color="#808080" stop-opacity="0.12"/>
<stop offset="1" stop-color="#808080" stop-opacity="0.1"/>
</linearGradient>
<linearGradient id="paint18_linear" x1="14486.9" y1="5631.99" x2="13620.3" y2="3370.03" gradientUnits="userSpaceOnUse">
<stop stop-color="#808080" stop-opacity="0.25"/>
<stop offset="0.54" stop-color="#808080" stop-opacity="0.12"/>
<stop offset="1" stop-color="#808080" stop-opacity="0.1"/>
</linearGradient>
</defs>
</svg>
